<svg width="1024" height="753" viewBox="0 0 1024 753" fill="none" xmlns="http://www.w3.org/2000/svg">
<g opacity="0.2" filter="url(#filter0_f_175_198)">
<ellipse cx="537.5" cy="206.242" rx="609.5" ry="328.242" fill="#338AF3"/>
</g>
<path d="M101.655 427.571C103.014 427.571 104.043 428.162 104.742 429.345C105.454 430.514 105.809 432.216 105.809 434.451C105.809 436.686 105.454 438.395 104.742 439.577C104.043 440.76 103.014 441.351 101.655 441.351C100.309 441.351 99.2796 440.76 98.5682 439.577C97.8568 438.395 97.5011 436.686 97.5011 434.451C97.5011 432.229 97.8568 430.527 98.5682 429.345C99.2796 428.162 100.309 427.571 101.655 427.571ZM98.854 434.451C98.854 436.037 98.9938 437.277 99.2733 438.174L103.504 429.54C103.059 428.929 102.443 428.624 101.655 428.624C100.779 428.624 100.093 429.105 99.5972 430.066C99.1018 431.015 98.854 432.476 98.854 434.451ZM101.655 440.279C102.544 440.279 103.237 439.805 103.732 438.856C104.228 437.895 104.475 436.426 104.475 434.451C104.475 432.775 104.317 431.476 103.999 430.553L99.7687 439.265C100.226 439.941 100.855 440.279 101.655 440.279Z" fill="url(#paint0_linear_175_198)" fill-opacity="0.6"/>
<path d="M102.798 462.398H105.6V463.431H98.3395V462.398H101.579V451.444L98.492 453.335L97.9584 452.458L101.77 450.041H102.798V462.398Z" fill="url(#paint1_linear_175_198)" fill-opacity="0.6"/>
<path d="M101.655 472.12C103.014 472.12 104.043 472.712 104.742 473.894C105.454 475.063 105.809 476.766 105.809 479C105.809 481.235 105.454 482.944 104.742 484.126C104.043 485.309 103.014 485.9 101.655 485.9C100.309 485.9 99.2796 485.309 98.5682 484.126C97.8568 482.944 97.5011 481.235 97.5011 479C97.5011 476.779 97.8568 475.076 98.5682 473.894C99.2796 472.712 100.309 472.12 101.655 472.12ZM98.854 479C98.854 480.586 98.9938 481.827 99.2733 482.723L103.504 474.089C103.059 473.478 102.443 473.173 101.655 473.173C100.779 473.173 100.093 473.654 99.5972 474.615C99.1018 475.564 98.854 477.025 98.854 479ZM101.655 484.828C102.544 484.828 103.237 484.354 103.732 483.405C104.228 482.444 104.475 480.976 104.475 479C104.475 477.324 104.317 476.025 103.999 475.102L99.7687 483.815C100.226 484.49 100.855 484.828 101.655 484.828Z" fill="url(#paint2_linear_175_198)" fill-opacity="0.6"/>
<path d="M102.798 506.947H105.6V507.98H98.3395V506.947H101.579V495.993L98.492 497.884L97.9584 497.007L101.77 494.59H102.798V506.947Z" fill="url(#paint3_linear_175_198)" fill-opacity="0.6"/>
<path d="M102.798 529.221H105.6V530.254H98.3395V529.221H101.579V518.268L98.492 520.158L97.9584 519.281L101.77 516.864H102.798V529.221Z" fill="url(#paint4_linear_175_198)" fill-opacity="0.6"/>
<path d="M101.655 538.944C103.014 538.944 104.043 539.535 104.742 540.718C105.454 541.887 105.809 543.589 105.809 545.824C105.809 548.059 105.454 549.768 104.742 550.95C104.043 552.133 103.014 552.724 101.655 552.724C100.309 552.724 99.2796 552.133 98.5682 550.95C97.8568 549.768 97.5011 548.059 97.5011 545.824C97.5011 543.602 97.8568 541.9 98.5682 540.718C99.2796 539.535 100.309 538.944 101.655 538.944ZM98.854 545.824C98.854 547.409 98.9938 548.65 99.2733 549.547L103.504 540.913C103.059 540.302 102.443 539.997 101.655 539.997C100.779 539.997 100.093 540.477 99.5972 541.439C99.1018 542.387 98.854 543.849 98.854 545.824ZM101.655 551.652C102.544 551.652 103.237 551.178 103.732 550.229C104.228 549.267 104.475 547.799 104.475 545.824C104.475 544.148 104.317 542.849 103.999 541.926L99.7687 550.638C100.226 551.314 100.855 551.652 101.655 551.652Z" fill="url(#paint5_linear_175_198)" fill-opacity="0.6"/>
<path d="M102.798 573.77H105.6V574.803H98.3395V573.77H101.579V562.817L98.492 564.707L97.9584 563.83L101.77 561.414H102.798V573.77Z" fill="url(#paint6_linear_175_198)" fill-opacity="0.6"/>
<path d="M101.655 583.493C103.014 583.493 104.043 584.085 104.742 585.267C105.454 586.436 105.809 588.138 105.809 590.373C105.809 592.608 105.454 594.317 104.742 595.499C104.043 596.682 103.014 597.273 101.655 597.273C100.309 597.273 99.2796 596.682 98.5682 595.499C97.8568 594.317 97.5011 592.608 97.5011 590.373C97.5011 588.151 97.8568 586.449 98.5682 585.267C99.2796 584.085 100.309 583.493 101.655 583.493ZM98.854 590.373C98.854 591.959 98.9938 593.199 99.2733 594.096L103.504 585.462C103.059 584.851 102.443 584.546 101.655 584.546C100.779 584.546 100.093 585.027 99.5972 585.988C99.1018 586.937 98.854 588.398 98.854 590.373ZM101.655 596.201C102.544 596.201 103.237 595.727 103.732 594.778C104.228 593.817 104.475 592.348 104.475 590.373C104.475 588.697 104.317 587.398 103.999 586.475L99.7687 595.187C100.226 595.863 100.855 596.201 101.655 596.201Z" fill="url(#paint7_linear_175_198)" fill-opacity="0.6"/>
<path d="M101.655 605.768C103.014 605.768 104.043 606.359 104.742 607.541C105.454 608.711 105.809 610.413 105.809 612.648C105.809 614.883 105.454 616.591 104.742 617.774C104.043 618.956 103.014 619.547 101.655 619.547C100.309 619.547 99.2796 618.956 98.5682 617.774C97.8568 616.591 97.5011 614.883 97.5011 612.648C97.5011 610.426 97.8568 608.724 98.5682 607.541C99.2796 606.359 100.309 605.768 101.655 605.768ZM98.854 612.648C98.854 614.233 98.9938 615.474 99.2733 616.371L103.504 607.736C103.059 607.126 102.443 606.82 101.655 606.82C100.779 606.82 100.093 607.301 99.5972 608.263C99.1018 609.211 98.854 610.673 98.854 612.648ZM101.655 618.476C102.544 618.476 103.237 618.001 103.732 617.053C104.228 616.091 104.475 614.623 104.475 612.648C104.475 610.972 104.317 609.672 103.999 608.75L99.7687 617.462C100.226 618.138 100.855 618.476 101.655 618.476Z" fill="url(#paint8_linear_175_198)" fill-opacity="0.6"/>
<path d="M102.798 640.594H105.6V641.627H98.3395V640.594H101.579V629.641L98.492 631.531L97.9584 630.654L101.77 628.237H102.798V640.594Z" fill="url(#paint9_linear_175_198)" fill-opacity="0.6"/>
<path d="M101.655 650.317C103.014 650.317 104.043 650.908 104.742 652.091C105.454 653.26 105.809 654.962 105.809 657.197C105.809 659.432 105.454 661.141 104.742 662.323C104.043 663.505 103.014 664.097 101.655 664.097C100.309 664.097 99.2796 663.505 98.5682 662.323C97.8568 661.141 97.5011 659.432 97.5011 657.197C97.5011 654.975 97.8568 653.273 98.5682 652.091C99.2796 650.908 100.309 650.317 101.655 650.317ZM98.854 657.197C98.854 658.782 98.9938 660.023 99.2733 660.92L103.504 652.286C103.059 651.675 102.443 651.369 101.655 651.369C100.779 651.369 100.093 651.85 99.5972 652.812C99.1018 653.76 98.854 655.222 98.854 657.197ZM101.655 663.025C102.544 663.025 103.237 662.55 103.732 661.602C104.228 660.64 104.475 659.172 104.475 657.197C104.475 655.521 104.317 654.222 103.999 653.299L99.7687 662.011C100.226 662.687 100.855 663.025 101.655 663.025Z" fill="url(#paint10_linear_175_198)" fill-opacity="0.6"/>
<path d="M102.798 685.143H105.6V686.176H98.3395V685.143H101.579V674.19L98.492 676.08L97.9584 675.203L101.77 672.786H102.798V685.143Z" fill="url(#paint11_linear_175_198)" fill-opacity="0.6"/>
<path d="M102.798 707.418H105.6V708.451H98.3395V707.418H101.579V696.464L98.492 698.355L97.9584 697.478L101.77 695.061H102.798V707.418Z" fill="url(#paint12_linear_175_198)" fill-opacity="0.6"/>
<path d="M137.044 472.12C138.403 472.12 139.432 472.712 140.131 473.894C140.842 475.063 141.198 476.766 141.198 479C141.198 481.235 140.842 482.944 140.131 484.126C139.432 485.309 138.403 485.9 137.044 485.9C135.697 485.9 134.668 485.309 133.957 484.126C133.245 482.944 132.89 481.235 132.89 479C132.89 476.779 133.245 475.076 133.957 473.894C134.668 472.712 135.697 472.12 137.044 472.12ZM134.242 479C134.242 480.586 134.382 481.827 134.662 482.723L138.892 474.089C138.447 473.478 137.831 473.173 137.044 473.173C136.167 473.173 135.481 473.654 134.986 474.615C134.49 475.564 134.242 477.025 134.242 479ZM137.044 484.828C137.933 484.828 138.625 484.354 139.121 483.405C139.616 482.444 139.864 480.976 139.864 479C139.864 477.324 139.705 476.025 139.387 475.102L135.157 483.815C135.614 484.49 136.243 484.828 137.044 484.828Z" fill="url(#paint13_linear_175_198)" fill-opacity="0.6"/>
<path d="M138.187 506.947H140.988V507.98H133.728V506.947H136.967V495.993L133.88 497.884L133.347 497.007L137.158 494.59H138.187V506.947Z" fill="url(#paint14_linear_175_198)" fill-opacity="0.6"/>
<path d="M137.044 516.67C138.403 516.67 139.432 517.261 140.131 518.443C140.842 519.613 141.198 521.315 141.198 523.55C141.198 525.785 140.842 527.493 140.131 528.676C139.432 529.858 138.403 530.449 137.044 530.449C135.697 530.449 134.668 529.858 133.957 528.676C133.245 527.493 132.89 525.785 132.89 523.55C132.89 521.328 133.245 519.626 133.957 518.443C134.668 517.261 135.697 516.67 137.044 516.67ZM134.242 523.55C134.242 525.135 134.382 526.376 134.662 527.272L138.892 518.638C138.447 518.027 137.831 517.722 137.044 517.722C136.167 517.722 135.481 518.203 134.986 519.164C134.49 520.113 134.242 521.575 134.242 523.55ZM137.044 529.377C137.933 529.377 138.625 528.903 139.121 527.954C139.616 526.993 139.864 525.525 139.864 523.55C139.864 521.873 139.705 520.574 139.387 519.652L135.157 528.364C135.614 529.039 136.243 529.377 137.044 529.377Z" fill="url(#paint15_linear_175_198)" fill-opacity="0.6"/>
<path d="M137.044 538.944C138.403 538.944 139.432 539.535 140.131 540.718C140.842 541.887 141.198 543.589 141.198 545.824C141.198 548.059 140.842 549.768 140.131 550.95C139.432 552.133 138.403 552.724 137.044 552.724C135.697 552.724 134.668 552.133 133.957 550.95C133.245 549.768 132.89 548.059 132.89 545.824C132.89 543.602 133.245 541.9 133.957 540.718C134.668 539.535 135.697 538.944 137.044 538.944ZM134.242 545.824C134.242 547.409 134.382 548.65 134.662 549.547L138.892 540.913C138.447 540.302 137.831 539.997 137.044 539.997C136.167 539.997 135.481 540.477 134.986 541.439C134.49 542.387 134.242 543.849 134.242 545.824ZM137.044 551.652C137.933 551.652 138.625 551.178 139.121 550.229C139.616 549.267 139.864 547.799 139.864 545.824C139.864 544.148 139.705 542.849 139.387 541.926L135.157 550.638C135.614 551.314 136.243 551.652 137.044 551.652Z" fill="url(#paint16_linear_175_198)" fill-opacity="0.6"/>
<path d="M138.187 573.77H140.988V574.803H133.728V573.77H136.967V562.817L133.88 564.707L133.347 563.83L137.158 561.414H138.187V573.77Z" fill="url(#paint17_linear_175_198)" fill-opacity="0.6"/>
<path d="M137.044 583.493C138.403 583.493 139.432 584.085 140.131 585.267C140.842 586.436 141.198 588.138 141.198 590.373C141.198 592.608 140.842 594.317 140.131 595.499C139.432 596.682 138.403 597.273 137.044 597.273C135.697 597.273 134.668 596.682 133.957 595.499C133.245 594.317 132.89 592.608 132.89 590.373C132.89 588.151 133.245 586.449 133.957 585.267C134.668 584.085 135.697 583.493 137.044 583.493ZM134.242 590.373C134.242 591.959 134.382 593.199 134.662 594.096L138.892 585.462C138.447 584.851 137.831 584.546 137.044 584.546C136.167 584.546 135.481 585.027 134.986 585.988C134.49 586.937 134.242 588.398 134.242 590.373ZM137.044 596.201C137.933 596.201 138.625 595.727 139.121 594.778C139.616 593.817 139.864 592.348 139.864 590.373C139.864 588.697 139.705 587.398 139.387 586.475L135.157 595.187C135.614 595.863 136.243 596.201 137.044 596.201Z" fill="url(#paint18_linear_175_198)" fill-opacity="0.6"/>
<path d="M138.187 618.32H140.988V619.353H133.728V618.32H136.967V607.366L133.88 609.257L133.347 608.38L137.158 605.963H138.187V618.32Z" fill="url(#paint19_linear_175_198)" fill-opacity="0.6"/>
<path d="M137.044 628.042C138.403 628.042 139.432 628.634 140.131 629.816C140.842 630.985 141.198 632.688 141.198 634.922C141.198 637.157 140.842 638.866 140.131 640.048C139.432 641.231 138.403 641.822 137.044 641.822C135.697 641.822 134.668 641.231 133.957 640.048C133.245 638.866 132.89 637.157 132.89 634.922C132.89 632.701 133.245 630.998 133.957 629.816C134.668 628.634 135.697 628.042 137.044 628.042ZM134.242 634.922C134.242 636.508 134.382 637.749 134.662 638.645L138.892 630.011C138.447 629.4 137.831 629.095 137.044 629.095C136.167 629.095 135.481 629.576 134.986 630.537C134.49 631.486 134.242 632.947 134.242 634.922ZM137.044 640.75C137.933 640.75 138.625 640.276 139.121 639.327C139.616 638.366 139.864 636.897 139.864 634.922C139.864 633.246 139.705 631.947 139.387 631.024L135.157 639.737C135.614 640.412 136.243 640.75 137.044 640.75Z" fill="url(#paint20_linear_175_198)" fill-opacity="0.6"/>
<path d="M137.044 650.317C138.403 650.317 139.432 650.908 140.131 652.091C140.842 653.26 141.198 654.962 141.198 657.197C141.198 659.432 140.842 661.141 140.131 662.323C139.432 663.505 138.403 664.097 137.044 664.097C135.697 664.097 134.668 663.505 133.957 662.323C133.245 661.141 132.89 659.432 132.89 657.197C132.89 654.975 133.245 653.273 133.957 652.091C134.668 650.908 135.697 650.317 137.044 650.317ZM134.242 657.197C134.242 658.782 134.382 660.023 134.662 660.92L138.892 652.286C138.447 651.675 137.831 651.369 137.044 651.369C136.167 651.369 135.481 651.85 134.986 652.812C134.49 653.76 134.242 655.222 134.242 657.197ZM137.044 663.025C137.933 663.025 138.625 662.55 139.121 661.602C139.616 660.64 139.864 659.172 139.864 657.197C139.864 655.521 139.705 654.222 139.387 653.299L135.157 662.011C135.614 662.687 136.243 663.025 137.044 663.025Z" fill="url(#paint21_linear_175_198)" fill-opacity="0.6"/>
<path d="M138.187 685.143H140.988V686.176H133.728V685.143H136.967V674.19L133.88 676.08L133.347 675.203L137.158 672.786H138.187V685.143Z" fill="url(#paint22_linear_175_198)" fill-opacity="0.6"/>
<path d="M137.044 694.866C138.403 694.866 139.432 695.457 140.131 696.64C140.842 697.809 141.198 699.511 141.198 701.746C141.198 703.981 140.842 705.69 140.131 706.872C139.432 708.055 138.403 708.646 137.044 708.646C135.697 708.646 134.668 708.055 133.957 706.872C133.245 705.69 132.89 703.981 132.89 701.746C132.89 699.524 133.245 697.822 133.957 696.64C134.668 695.457 135.697 694.866 137.044 694.866ZM134.242 701.746C134.242 703.331 134.382 704.572 134.662 705.469L138.892 696.835C138.447 696.224 137.831 695.919 137.044 695.919C136.167 695.919 135.481 696.399 134.986 697.361C134.49 698.309 134.242 699.771 134.242 701.746ZM137.044 707.574C137.933 707.574 138.625 707.1 139.121 706.151C139.616 705.189 139.864 703.721 139.864 701.746C139.864 700.07 139.705 698.771 139.387 697.848L135.157 706.56C135.614 707.236 136.243 707.574 137.044 707.574Z" fill="url(#paint23_linear_175_198)" fill-opacity="0.6"/>
<path d="M138.187 729.692H140.988V730.725H133.728V729.692H136.967V718.739L133.88 720.629L133.347 719.752L137.158 717.336H138.187V729.692Z" fill="url(#paint24_linear_175_198)" fill-opacity="0.6"/>
<path d="M138.187 751.967H140.988V753H133.728V751.967H136.967V741.013L133.88 742.904L133.347 742.027L137.158 739.61H138.187V751.967Z" fill="url(#paint25_linear_175_198)" fill-opacity="0.6"/>
<path d="M83.9609 494.395C85.3202 494.395 86.3492 494.986 87.0479 496.169C87.7593 497.338 88.115 499.04 88.115 501.275C88.115 503.51 87.7593 505.219 87.0479 506.401C86.3492 507.583 85.3202 508.175 83.9609 508.175C82.6144 508.175 81.5854 507.583 80.874 506.401C80.1626 505.219 79.8069 503.51 79.8069 501.275C79.8069 499.053 80.1626 497.351 80.874 496.169C81.5854 494.986 82.6144 494.395 83.9609 494.395ZM81.1598 501.275C81.1598 502.86 81.2996 504.101 81.579 504.998L85.8093 496.364C85.3647 495.753 84.7486 495.447 83.9609 495.447C83.0844 495.447 82.3984 495.928 81.903 496.89C81.4075 497.838 81.1598 499.3 81.1598 501.275ZM83.9609 507.103C84.8502 507.103 85.5425 506.628 86.038 505.68C86.5334 504.718 86.7811 503.25 86.7811 501.275C86.7811 499.599 86.6223 498.3 86.3047 497.377L82.0745 506.089C82.5318 506.765 83.1606 507.103 83.9609 507.103Z" fill="url(#paint26_linear_175_198)" fill-opacity="0.6"/>
<path d="M83.9609 516.67C85.3202 516.67 86.3492 517.261 87.0479 518.443C87.7593 519.613 88.115 521.315 88.115 523.55C88.115 525.785 87.7593 527.493 87.0479 528.676C86.3492 529.858 85.3202 530.449 83.9609 530.449C82.6144 530.449 81.5854 529.858 80.874 528.676C80.1626 527.493 79.8069 525.785 79.8069 523.55C79.8069 521.328 80.1626 519.626 80.874 518.443C81.5854 517.261 82.6144 516.67 83.9609 516.67ZM81.1598 523.55C81.1598 525.135 81.2996 526.376 81.579 527.272L85.8093 518.638C85.3647 518.027 84.7486 517.722 83.9609 517.722C83.0844 517.722 82.3984 518.203 81.903 519.164C81.4075 520.113 81.1598 521.575 81.1598 523.55ZM83.9609 529.377C84.8502 529.377 85.5425 528.903 86.038 527.954C86.5334 526.993 86.7811 525.525 86.7811 523.55C86.7811 521.873 86.6223 520.574 86.3047 519.652L82.0745 528.364C82.5318 529.039 83.1606 529.377 83.9609 529.377Z" fill="url(#paint27_linear_175_198)" fill-opacity="0.6"/>
<path d="M85.1043 551.496H87.9054V552.529H80.6453V551.496H83.8847V540.542L80.7978 542.433L80.2642 541.556L84.0753 539.139H85.1043V551.496Z" fill="url(#paint28_linear_175_198)" fill-opacity="0.6"/>
<path d="M83.9609 561.219C85.3202 561.219 86.3492 561.81 87.0479 562.992C87.7593 564.162 88.115 565.864 88.115 568.099C88.115 570.334 87.7593 572.042 87.0479 573.225C86.3492 574.407 85.3202 574.998 83.9609 574.998C82.6144 574.998 81.5854 574.407 80.874 573.225C80.1626 572.042 79.8069 570.334 79.8069 568.099C79.8069 565.877 80.1626 564.175 80.874 562.992C81.5854 561.81 82.6144 561.219 83.9609 561.219ZM81.1598 568.099C81.1598 569.684 81.2996 570.925 81.579 571.821L85.8093 563.187C85.3647 562.577 84.7486 562.271 83.9609 562.271C83.0844 562.271 82.3984 562.752 81.903 563.713C81.4075 564.662 81.1598 566.124 81.1598 568.099ZM83.9609 573.926C84.8502 573.926 85.5425 573.452 86.038 572.504C86.5334 571.542 86.7811 570.074 86.7811 568.099C86.7811 566.423 86.6223 565.123 86.3047 564.201L82.0745 572.913C82.5318 573.589 83.1606 573.926 83.9609 573.926Z" fill="url(#paint29_linear_175_198)" fill-opacity="0.6"/>
<path d="M85.1043 596.045H87.9054V597.078H80.6453V596.045H83.8847V585.091L80.7978 586.982L80.2642 586.105L84.0753 583.688H85.1043V596.045Z" fill="url(#paint30_linear_175_198)" fill-opacity="0.6"/>
<path d="M85.1043 618.32H87.9054V619.353H80.6453V618.32H83.8847V607.366L80.7978 609.257L80.2642 608.38L84.0753 605.963H85.1043V618.32Z" fill="url(#paint31_linear_175_198)" fill-opacity="0.6"/>
<path d="M120.493 462.398H123.294V463.431H116.034V462.398H119.273V451.444L116.186 453.335L115.653 452.458L119.464 450.041H120.493V462.398Z" fill="url(#paint32_linear_175_198)" fill-opacity="0.6"/>
<path d="M119.349 472.12C120.709 472.12 121.738 472.712 122.436 473.894C123.148 475.063 123.503 476.766 123.503 479C123.503 481.235 123.148 482.944 122.436 484.126C121.738 485.309 120.709 485.9 119.349 485.9C118.003 485.9 116.974 485.309 116.262 484.126C115.551 482.944 115.195 481.235 115.195 479C115.195 476.779 115.551 475.076 116.262 473.894C116.974 472.712 118.003 472.12 119.349 472.12ZM116.548 479C116.548 480.586 116.688 481.827 116.967 482.723L121.198 474.089C120.753 473.478 120.137 473.173 119.349 473.173C118.473 473.173 117.787 473.654 117.291 474.615C116.796 475.564 116.548 477.025 116.548 479ZM119.349 484.828C120.239 484.828 120.931 484.354 121.426 483.405C121.922 482.444 122.17 480.976 122.17 479C122.17 477.324 122.011 476.025 121.693 475.102L117.463 483.815C117.92 484.49 118.549 484.828 119.349 484.828Z" fill="url(#paint33_linear_175_198)" fill-opacity="0.6"/>
<path d="M120.493 506.947H123.294V507.98H116.034V506.947H119.273V495.993L116.186 497.884L115.653 497.007L119.464 494.59H120.493V506.947Z" fill="url(#paint34_linear_175_198)" fill-opacity="0.6"/>
<path d="M120.493 529.221H123.294V530.254H116.034V529.221H119.273V518.268L116.186 520.158L115.653 519.281L119.464 516.864H120.493V529.221Z" fill="url(#paint35_linear_175_198)" fill-opacity="0.6"/>
<path d="M119.349 538.944C120.709 538.944 121.738 539.535 122.436 540.718C123.148 541.887 123.503 543.589 123.503 545.824C123.503 548.059 123.148 549.768 122.436 550.95C121.738 552.133 120.709 552.724 119.349 552.724C118.003 552.724 116.974 552.133 116.262 550.95C115.551 549.768 115.195 548.059 115.195 545.824C115.195 543.602 115.551 541.9 116.262 540.718C116.974 539.535 118.003 538.944 119.349 538.944ZM116.548 545.824C116.548 547.409 116.688 548.65 116.967 549.547L121.198 540.913C120.753 540.302 120.137 539.997 119.349 539.997C118.473 539.997 117.787 540.477 117.291 541.439C116.796 542.387 116.548 543.849 116.548 545.824ZM119.349 551.652C120.239 551.652 120.931 551.178 121.426 550.229C121.922 549.267 122.17 547.799 122.17 545.824C122.17 544.148 122.011 542.849 121.693 541.926L117.463 550.638C117.92 551.314 118.549 551.652 119.349 551.652Z" fill="url(#paint36_linear_175_198)" fill-opacity="0.6"/>
<path d="M120.493 573.77H123.294V574.803H116.034V573.77H119.273V562.817L116.186 564.707L115.653 563.83L119.464 561.414H120.493V573.77Z" fill="url(#paint37_linear_175_198)" fill-opacity="0.6"/>
<path d="M120.493 596.045H123.294V597.078H116.034V596.045H119.273V585.091L116.186 586.982L115.653 586.105L119.464 583.688H120.493V596.045Z" fill="url(#paint38_linear_175_198)" fill-opacity="0.6"/>
<path d="M119.349 605.768C120.709 605.768 121.738 606.359 122.436 607.541C123.148 608.711 123.503 610.413 123.503 612.648C123.503 614.883 123.148 616.591 122.436 617.774C121.738 618.956 120.709 619.547 119.349 619.547C118.003 619.547 116.974 618.956 116.262 617.774C115.551 616.591 115.195 614.883 115.195 612.648C115.195 610.426 115.551 608.724 116.262 607.541C116.974 606.359 118.003 605.768 119.349 605.768ZM116.548 612.648C116.548 614.233 116.688 615.474 116.967 616.371L121.198 607.736C120.753 607.126 120.137 606.82 119.349 606.82C118.473 606.82 117.787 607.301 117.291 608.263C116.796 609.211 116.548 610.673 116.548 612.648ZM119.349 618.476C120.239 618.476 120.931 618.001 121.426 617.053C121.922 616.091 122.17 614.623 122.17 612.648C122.17 610.972 122.011 609.672 121.693 608.75L117.463 617.462C117.92 618.138 118.549 618.476 119.349 618.476Z" fill="url(#paint39_linear_175_198)" fill-opacity="0.6"/>
<path d="M120.493 640.594H123.294V641.627H116.034V640.594H119.273V629.641L116.186 631.531L115.653 630.654L119.464 628.237H120.493V640.594Z" fill="url(#paint40_linear_175_198)" fill-opacity="0.6"/>
<path d="M119.349 650.317C120.709 650.317 121.738 650.908 122.436 652.091C123.148 653.26 123.503 654.962 123.503 657.197C123.503 659.432 123.148 661.141 122.436 662.323C121.738 663.505 120.709 664.097 119.349 664.097C118.003 664.097 116.974 663.505 116.262 662.323C115.551 661.141 115.195 659.432 115.195 657.197C115.195 654.975 115.551 653.273 116.262 652.091C116.974 650.908 118.003 650.317 119.349 650.317ZM116.548 657.197C116.548 658.782 116.688 660.023 116.967 660.92L121.198 652.286C120.753 651.675 120.137 651.369 119.349 651.369C118.473 651.369 117.787 651.85 117.291 652.812C116.796 653.76 116.548 655.222 116.548 657.197ZM119.349 663.025C120.239 663.025 120.931 662.55 121.426 661.602C121.922 660.64 122.17 659.172 122.17 657.197C122.17 655.521 122.011 654.222 121.693 653.299L117.463 662.011C117.92 662.687 118.549 663.025 119.349 663.025Z" fill="url(#paint41_linear_175_198)" fill-opacity="0.6"/>
<path d="M154.738 449.846C156.097 449.846 157.126 450.437 157.825 451.619C158.536 452.789 158.892 454.491 158.892 456.726C158.892 458.961 158.536 460.669 157.825 461.852C157.126 463.034 156.097 463.625 154.738 463.625C153.391 463.625 152.362 463.034 151.651 461.852C150.939 460.669 150.584 458.961 150.584 456.726C150.584 454.504 150.939 452.802 151.651 451.619C152.362 450.437 153.391 449.846 154.738 449.846ZM151.937 456.726C151.937 458.311 152.076 459.552 152.356 460.449L156.586 451.814C156.142 451.204 155.525 450.898 154.738 450.898C153.861 450.898 153.175 451.379 152.68 452.341C152.184 453.289 151.937 454.751 151.937 456.726ZM154.738 462.554C155.627 462.554 156.319 462.079 156.815 461.131C157.31 460.169 157.558 458.701 157.558 456.726C157.558 455.05 157.399 453.75 157.082 452.828L152.851 461.54C153.309 462.216 153.938 462.554 154.738 462.554Z" fill="url(#paint42_linear_175_198)" fill-opacity="0.6"/>
<path d="M155.881 484.672H158.682V485.705H151.422V484.672H154.662V473.719L151.575 475.609L151.041 474.732L154.852 472.315H155.881V484.672Z" fill="url(#paint43_linear_175_198)" fill-opacity="0.6"/>
<path d="M155.881 506.947H158.682V507.98H151.422V506.947H154.662V495.993L151.575 497.884L151.041 497.007L154.852 494.59H155.881V506.947Z" fill="url(#paint44_linear_175_198)" fill-opacity="0.6"/>
<path d="M154.738 516.67C156.097 516.67 157.126 517.261 157.825 518.443C158.536 519.613 158.892 521.315 158.892 523.55C158.892 525.785 158.536 527.493 157.825 528.676C157.126 529.858 156.097 530.449 154.738 530.449C153.391 530.449 152.362 529.858 151.651 528.676C150.939 527.493 150.584 525.785 150.584 523.55C150.584 521.328 150.939 519.626 151.651 518.443C152.362 517.261 153.391 516.67 154.738 516.67ZM151.937 523.55C151.937 525.135 152.076 526.376 152.356 527.272L156.586 518.638C156.142 518.027 155.525 517.722 154.738 517.722C153.861 517.722 153.175 518.203 152.68 519.164C152.184 520.113 151.937 521.575 151.937 523.55ZM154.738 529.377C155.627 529.377 156.319 528.903 156.815 527.954C157.31 526.993 157.558 525.525 157.558 523.55C157.558 521.873 157.399 520.574 157.082 519.652L152.851 528.364C153.309 529.039 153.938 529.377 154.738 529.377Z" fill="url(#paint45_linear_175_198)" fill-opacity="0.6"/>
<path d="M154.738 538.944C156.097 538.944 157.126 539.535 157.825 540.718C158.536 541.887 158.892 543.589 158.892 545.824C158.892 548.059 158.536 549.768 157.825 550.95C157.126 552.133 156.097 552.724 154.738 552.724C153.391 552.724 152.362 552.133 151.651 550.95C150.939 549.768 150.584 548.059 150.584 545.824C150.584 543.602 150.939 541.9 151.651 540.718C152.362 539.535 153.391 538.944 154.738 538.944ZM151.937 545.824C151.937 547.409 152.076 548.65 152.356 549.547L156.586 540.913C156.142 540.302 155.525 539.997 154.738 539.997C153.861 539.997 153.175 540.477 152.68 541.439C152.184 542.387 151.937 543.849 151.937 545.824ZM154.738 551.652C155.627 551.652 156.319 551.178 156.815 550.229C157.31 549.267 157.558 547.799 157.558 545.824C157.558 544.148 157.399 542.849 157.082 541.926L152.851 550.638C153.309 551.314 153.938 551.652 154.738 551.652Z" fill="url(#paint46_linear_175_198)" fill-opacity="0.6"/>
<g opacity="0.6">
<path d="M907.863 146.221C909.16 146.221 910.142 146.788 910.808 147.923C911.487 149.045 911.826 150.679 911.826 152.823C911.826 154.968 911.487 156.608 910.808 157.742C910.142 158.877 909.16 159.444 907.863 159.444C906.578 159.444 905.597 158.877 904.918 157.742C904.239 156.608 903.9 154.968 903.9 152.823C903.9 150.691 904.239 149.058 904.918 147.923C905.597 146.788 906.578 146.221 907.863 146.221ZM905.191 152.823C905.191 154.345 905.324 155.535 905.591 156.396L909.627 148.11C909.202 147.524 908.615 147.231 907.863 147.231C907.027 147.231 906.372 147.692 905.9 148.615C905.427 149.525 905.191 150.928 905.191 152.823ZM907.863 158.416C908.712 158.416 909.372 157.961 909.845 157.05C910.317 156.128 910.554 154.719 910.554 152.823C910.554 151.215 910.402 149.968 910.099 149.082L906.063 157.443C906.5 158.092 907.1 158.416 907.863 158.416Z" fill="url(#paint47_linear_175_198)"/>
<path d="M908.954 179.642H911.626V180.633H904.7V179.642H907.79V169.13L904.845 170.945L904.336 170.103L907.972 167.784H908.954V179.642Z" fill="url(#paint48_linear_175_198)"/>
<path d="M907.863 188.973C909.16 188.973 910.142 189.54 910.808 190.675C911.487 191.797 911.826 193.43 911.826 195.575C911.826 197.72 911.487 199.359 910.808 200.494C910.142 201.629 909.16 202.196 907.863 202.196C906.578 202.196 905.597 201.629 904.918 200.494C904.239 199.359 903.9 197.72 903.9 195.575C903.9 193.443 904.239 191.809 904.918 190.675C905.597 189.54 906.578 188.973 907.863 188.973ZM905.191 195.575C905.191 197.096 905.324 198.287 905.591 199.147L909.627 190.862C909.202 190.276 908.615 189.983 907.863 189.983C907.027 189.983 906.372 190.444 905.9 191.367C905.427 192.277 905.191 193.68 905.191 195.575ZM907.863 201.168C908.712 201.168 909.372 200.712 909.845 199.802C910.317 198.879 910.554 197.47 910.554 195.575C910.554 193.967 910.402 192.72 910.099 191.834L906.063 200.195C906.5 200.843 907.1 201.168 907.863 201.168Z" fill="url(#paint49_linear_175_198)"/>
<path d="M908.954 222.394H911.626V223.385H904.7V222.394H907.79V211.882L904.845 213.696L904.336 212.855L907.972 210.535H908.954V222.394Z" fill="url(#paint50_linear_175_198)"/>
<path d="M908.954 243.77H911.626V244.761H904.7V243.77H907.79V233.258L904.845 235.072L904.336 234.231L907.972 231.911H908.954V243.77Z" fill="url(#paint51_linear_175_198)"/>
<path d="M907.863 253.1C909.16 253.1 910.142 253.668 910.808 254.802C911.487 255.925 911.826 257.558 911.826 259.703C911.826 261.847 911.487 263.487 910.808 264.622C910.142 265.757 909.16 266.324 907.863 266.324C906.578 266.324 905.597 265.757 904.918 264.622C904.239 263.487 903.9 261.847 903.9 259.703C903.9 257.57 904.239 255.937 904.918 254.802C905.597 253.668 906.578 253.1 907.863 253.1ZM905.191 259.703C905.191 261.224 905.324 262.415 905.591 263.275L909.627 254.989C909.202 254.403 908.615 254.11 907.863 254.11C907.027 254.11 906.372 254.572 905.9 255.494C905.427 256.405 905.191 257.807 905.191 259.703ZM907.863 265.295C908.712 265.295 909.372 264.84 909.845 263.93C910.317 263.007 910.554 261.598 910.554 259.703C910.554 258.094 910.402 256.847 910.099 255.962L906.063 264.323C906.5 264.971 907.1 265.295 907.863 265.295Z" fill="url(#paint52_linear_175_198)"/>
<path d="M908.954 286.521H911.626V287.513H904.7V286.521H907.79V276.01L904.845 277.824L904.336 276.982L907.972 274.663H908.954V286.521Z" fill="url(#paint53_linear_175_198)"/>
<path d="M907.863 295.852C909.16 295.852 910.142 296.419 910.808 297.554C911.487 298.676 911.826 300.31 911.826 302.454C911.826 304.599 911.487 306.239 910.808 307.374C910.142 308.508 909.16 309.076 907.863 309.076C906.578 309.076 905.597 308.508 904.918 307.374C904.239 306.239 903.9 304.599 903.9 302.454C903.9 300.322 904.239 298.689 904.918 297.554C905.597 296.419 906.578 295.852 907.863 295.852ZM905.191 302.454C905.191 303.976 905.324 305.167 905.591 306.027L909.627 297.741C909.202 297.155 908.615 296.862 907.863 296.862C907.027 296.862 906.372 297.323 905.9 298.246C905.427 299.156 905.191 300.559 905.191 302.454ZM907.863 308.047C908.712 308.047 909.372 307.592 909.845 306.682C910.317 305.759 910.554 304.35 910.554 302.454C910.554 300.846 910.402 299.599 910.099 298.714L906.063 307.074C906.5 307.723 907.1 308.047 907.863 308.047Z" fill="url(#paint54_linear_175_198)"/>
<path d="M907.863 317.228C909.16 317.228 910.142 317.795 910.808 318.93C911.487 320.052 911.826 321.686 911.826 323.83C911.826 325.975 911.487 327.615 910.808 328.749C910.142 329.884 909.16 330.452 907.863 330.452C906.578 330.452 905.597 329.884 904.918 328.749C904.239 327.615 903.9 325.975 903.9 323.83C903.9 321.698 904.239 320.065 904.918 318.93C905.597 317.795 906.578 317.228 907.863 317.228ZM905.191 323.83C905.191 325.352 905.324 326.542 905.591 327.403L909.627 319.117C909.202 318.531 908.615 318.238 907.863 318.238C907.027 318.238 906.372 318.699 905.9 319.622C905.427 320.532 905.191 321.935 905.191 323.83ZM907.863 329.423C908.712 329.423 909.372 328.968 909.845 328.057C910.317 327.135 910.554 325.726 910.554 323.83C910.554 322.222 910.402 320.975 910.099 320.09L906.063 328.45C906.5 329.099 907.1 329.423 907.863 329.423Z" fill="url(#paint55_linear_175_198)"/>
<path d="M908.954 350.649H911.626V351.64H904.7V350.649H907.79V340.138L904.845 341.952L904.336 341.11L907.972 338.791H908.954V350.649Z" fill="url(#paint56_linear_175_198)"/>
<path d="M907.863 359.98C909.16 359.98 910.142 360.547 910.808 361.682C911.487 362.804 911.826 364.437 911.826 366.582C911.826 368.727 911.487 370.367 910.808 371.501C910.142 372.636 909.16 373.203 907.863 373.203C906.578 373.203 905.597 372.636 904.918 371.501C904.239 370.367 903.9 368.727 903.9 366.582C903.9 364.45 904.239 362.816 904.918 361.682C905.597 360.547 906.578 359.98 907.863 359.98ZM905.191 366.582C905.191 368.103 905.324 369.294 905.591 370.155L909.627 361.869C909.202 361.283 908.615 360.99 907.863 360.99C907.027 360.99 906.372 361.451 905.9 362.374C905.427 363.284 905.191 364.687 905.191 366.582ZM907.863 372.175C908.712 372.175 909.372 371.719 909.845 370.809C910.317 369.887 910.554 368.477 910.554 366.582C910.554 364.974 910.402 363.727 910.099 362.841L906.063 371.202C906.5 371.85 907.1 372.175 907.863 372.175Z" fill="url(#paint57_linear_175_198)"/>
<path d="M908.954 393.401H911.626V394.392H904.7V393.401H907.79V382.889L904.845 384.704L904.336 383.862L907.972 381.543H908.954V393.401Z" fill="url(#paint58_linear_175_198)"/>
<path d="M908.954 414.777H911.626V415.768H904.7V414.777H907.79V404.265L904.845 406.079L904.336 405.238L907.972 402.918H908.954V414.777Z" fill="url(#paint59_linear_175_198)"/>
<path d="M941.625 188.973C942.921 188.973 943.903 189.54 944.57 190.675C945.248 191.797 945.588 193.43 945.588 195.575C945.588 197.72 945.248 199.359 944.57 200.494C943.903 201.629 942.921 202.196 941.625 202.196C940.34 202.196 939.358 201.629 938.679 200.494C938.001 199.359 937.661 197.72 937.661 195.575C937.661 193.443 938.001 191.809 938.679 190.675C939.358 189.54 940.34 188.973 941.625 188.973ZM938.952 195.575C938.952 197.096 939.085 198.287 939.352 199.147L943.388 190.862C942.964 190.276 942.376 189.983 941.625 189.983C940.788 189.983 940.134 190.444 939.661 191.367C939.188 192.277 938.952 193.68 938.952 195.575ZM941.625 201.168C942.473 201.168 943.133 200.712 943.606 199.802C944.079 198.879 944.315 197.47 944.315 195.575C944.315 193.967 944.164 192.72 943.861 191.834L939.825 200.195C940.261 200.843 940.861 201.168 941.625 201.168Z" fill="url(#paint60_linear_175_198)"/>
<path d="M942.715 222.394H945.388V223.385H938.461V222.394H941.552V211.882L938.607 213.696L938.098 212.855L941.734 210.535H942.715V222.394Z" fill="url(#paint61_linear_175_198)"/>
<path d="M941.625 231.724C942.921 231.724 943.903 232.292 944.57 233.426C945.248 234.549 945.588 236.182 945.588 238.327C945.588 240.472 945.248 242.111 944.57 243.246C943.903 244.381 942.921 244.948 941.625 244.948C940.34 244.948 939.358 244.381 938.679 243.246C938.001 242.111 937.661 240.472 937.661 238.327C937.661 236.195 938.001 234.561 938.679 233.426C939.358 232.292 940.34 231.724 941.625 231.724ZM938.952 238.327C938.952 239.848 939.085 241.039 939.352 241.899L943.388 233.613C942.964 233.027 942.376 232.734 941.625 232.734C940.788 232.734 940.134 233.196 939.661 234.118C939.188 235.029 938.952 236.431 938.952 238.327ZM941.625 243.919C942.473 243.919 943.133 243.464 943.606 242.554C944.079 241.631 944.315 240.222 944.315 238.327C944.315 236.718 944.164 235.471 943.861 234.586L939.825 242.947C940.261 243.595 940.861 243.919 941.625 243.919Z" fill="url(#paint62_linear_175_198)"/>
<path d="M941.625 253.1C942.921 253.1 943.903 253.668 944.57 254.802C945.248 255.925 945.588 257.558 945.588 259.703C945.588 261.847 945.248 263.487 944.57 264.622C943.903 265.757 942.921 266.324 941.625 266.324C940.34 266.324 939.358 265.757 938.679 264.622C938.001 263.487 937.661 261.847 937.661 259.703C937.661 257.57 938.001 255.937 938.679 254.802C939.358 253.668 940.34 253.1 941.625 253.1ZM938.952 259.703C938.952 261.224 939.085 262.415 939.352 263.275L943.388 254.989C942.964 254.403 942.376 254.11 941.625 254.11C940.788 254.11 940.134 254.572 939.661 255.494C939.188 256.405 938.952 257.807 938.952 259.703ZM941.625 265.295C942.473 265.295 943.133 264.84 943.606 263.93C944.079 263.007 944.315 261.598 944.315 259.703C944.315 258.094 944.164 256.847 943.861 255.962L939.825 264.323C940.261 264.971 940.861 265.295 941.625 265.295Z" fill="url(#paint63_linear_175_198)"/>
<path d="M942.715 286.521H945.388V287.513H938.461V286.521H941.552V276.01L938.607 277.824L938.098 276.982L941.734 274.663H942.715V286.521Z" fill="url(#paint64_linear_175_198)"/>
<path d="M941.625 295.852C942.921 295.852 943.903 296.419 944.57 297.554C945.248 298.676 945.588 300.31 945.588 302.454C945.588 304.599 945.248 306.239 944.57 307.374C943.903 308.508 942.921 309.076 941.625 309.076C940.34 309.076 939.358 308.508 938.679 307.374C938.001 306.239 937.661 304.599 937.661 302.454C937.661 300.322 938.001 298.689 938.679 297.554C939.358 296.419 940.34 295.852 941.625 295.852ZM938.952 302.454C938.952 303.976 939.085 305.167 939.352 306.027L943.388 297.741C942.964 297.155 942.376 296.862 941.625 296.862C940.788 296.862 940.134 297.323 939.661 298.246C939.188 299.156 938.952 300.559 938.952 302.454ZM941.625 308.047C942.473 308.047 943.133 307.592 943.606 306.682C944.079 305.759 944.315 304.35 944.315 302.454C944.315 300.846 944.164 299.599 943.861 298.714L939.825 307.074C940.261 307.723 940.861 308.047 941.625 308.047Z" fill="url(#paint65_linear_175_198)"/>
<path d="M942.715 329.273H945.388V330.265H938.461V329.273H941.552V318.762L938.607 320.576L938.098 319.734L941.734 317.415H942.715V329.273Z" fill="url(#paint66_linear_175_198)"/>
<path d="M941.625 338.604C942.921 338.604 943.903 339.171 944.57 340.306C945.248 341.428 945.588 343.062 945.588 345.206C945.588 347.351 945.248 348.991 944.57 350.125C943.903 351.26 942.921 351.827 941.625 351.827C940.34 351.827 939.358 351.26 938.679 350.125C938.001 348.991 937.661 347.351 937.661 345.206C937.661 343.074 938.001 341.441 938.679 340.306C939.358 339.171 940.34 338.604 941.625 338.604ZM938.952 345.206C938.952 346.728 939.085 347.918 939.352 348.779L943.388 340.493C942.964 339.907 942.376 339.614 941.625 339.614C940.788 339.614 940.134 340.075 939.661 340.998C939.188 341.908 938.952 343.311 938.952 345.206ZM941.625 350.799C942.473 350.799 943.133 350.344 943.606 349.433C944.079 348.511 944.315 347.102 944.315 345.206C944.315 343.598 944.164 342.351 943.861 341.465L939.825 349.826C940.261 350.475 940.861 350.799 941.625 350.799Z" fill="url(#paint67_linear_175_198)"/>
<path d="M941.625 359.98C942.921 359.98 943.903 360.547 944.57 361.682C945.248 362.804 945.588 364.437 945.588 366.582C945.588 368.727 945.248 370.367 944.57 371.501C943.903 372.636 942.921 373.203 941.625 373.203C940.34 373.203 939.358 372.636 938.679 371.501C938.001 370.367 937.661 368.727 937.661 366.582C937.661 364.45 938.001 362.816 938.679 361.682C939.358 360.547 940.34 359.98 941.625 359.98ZM938.952 366.582C938.952 368.103 939.085 369.294 939.352 370.155L943.388 361.869C942.964 361.283 942.376 360.99 941.625 360.99C940.788 360.99 940.134 361.451 939.661 362.374C939.188 363.284 938.952 364.687 938.952 366.582ZM941.625 372.175C942.473 372.175 943.133 371.719 943.606 370.809C944.079 369.887 944.315 368.477 944.315 366.582C944.315 364.974 944.164 363.727 943.861 362.841L939.825 371.202C940.261 371.85 940.861 372.175 941.625 372.175Z" fill="url(#paint68_linear_175_198)"/>
<path d="M942.715 393.401H945.388V394.392H938.461V393.401H941.552V382.889L938.607 384.704L938.098 383.862L941.734 381.543H942.715V393.401Z" fill="url(#paint69_linear_175_198)"/>
<path d="M941.625 402.731C942.921 402.731 943.903 403.299 944.57 404.434C945.248 405.556 945.588 407.189 945.588 409.334C945.588 411.479 945.248 413.118 944.57 414.253C943.903 415.388 942.921 415.955 941.625 415.955C940.34 415.955 939.358 415.388 938.679 414.253C938.001 413.118 937.661 411.479 937.661 409.334C937.661 407.202 938.001 405.568 938.679 404.434C939.358 403.299 940.34 402.731 941.625 402.731ZM938.952 409.334C938.952 410.855 939.085 412.046 939.352 412.906L943.388 404.621C942.964 404.034 942.376 403.741 941.625 403.741C940.788 403.741 940.134 404.203 939.661 405.126C939.188 406.036 938.952 407.439 938.952 409.334ZM941.625 414.926C942.473 414.926 943.133 414.471 943.606 413.561C944.079 412.638 944.315 411.229 944.315 409.334C944.315 407.725 944.164 406.478 943.861 405.593L939.825 413.954C940.261 414.602 940.861 414.926 941.625 414.926Z" fill="url(#paint70_linear_175_198)"/>
<path d="M942.715 436.153H945.388V437.144H938.461V436.153H941.552V425.641L938.607 427.455L938.098 426.614L941.734 424.294H942.715V436.153Z" fill="url(#paint71_linear_175_198)"/>
<path d="M942.715 457.529H945.388V458.52H938.461V457.529H941.552V447.017L938.607 448.831L938.098 447.99L941.734 445.67H942.715V457.529Z" fill="url(#paint72_linear_175_198)"/>
<path d="M890.982 210.348C892.279 210.348 893.261 210.916 893.928 212.051C894.606 213.173 894.946 214.806 894.946 216.951C894.946 219.096 894.606 220.735 893.928 221.87C893.261 223.005 892.279 223.572 890.982 223.572C889.698 223.572 888.716 223.005 888.037 221.87C887.359 220.735 887.019 219.096 887.019 216.951C887.019 214.819 887.359 213.185 888.037 212.051C888.716 210.916 889.698 210.348 890.982 210.348ZM888.31 216.951C888.31 218.472 888.443 219.663 888.71 220.523L892.746 212.238C892.322 211.652 891.734 211.358 890.982 211.358C890.146 211.358 889.492 211.82 889.019 212.743C888.546 213.653 888.31 215.056 888.31 216.951ZM890.982 222.543C891.831 222.543 892.491 222.088 892.964 221.178C893.437 220.255 893.673 218.846 893.673 216.951C893.673 215.342 893.522 214.095 893.219 213.21L889.183 221.571C889.619 222.219 890.219 222.543 890.982 222.543Z" fill="url(#paint73_linear_175_198)"/>
<path d="M890.982 231.724C892.279 231.724 893.261 232.292 893.928 233.426C894.606 234.549 894.946 236.182 894.946 238.327C894.946 240.472 894.606 242.111 893.928 243.246C893.261 244.381 892.279 244.948 890.982 244.948C889.698 244.948 888.716 244.381 888.037 243.246C887.359 242.111 887.019 240.472 887.019 238.327C887.019 236.195 887.359 234.561 888.037 233.426C888.716 232.292 889.698 231.724 890.982 231.724ZM888.31 238.327C888.31 239.848 888.443 241.039 888.71 241.899L892.746 233.613C892.322 233.027 891.734 232.734 890.982 232.734C890.146 232.734 889.492 233.196 889.019 234.118C888.546 235.029 888.31 236.431 888.31 238.327ZM890.982 243.919C891.831 243.919 892.491 243.464 892.964 242.554C893.437 241.631 893.673 240.222 893.673 238.327C893.673 236.718 893.522 235.471 893.219 234.586L889.183 242.947C889.619 243.595 890.219 243.919 890.982 243.919Z" fill="url(#paint74_linear_175_198)"/>
<path d="M892.073 265.146H894.746V266.137H887.819V265.146H890.91V254.634L887.965 256.448L887.456 255.607L891.092 253.287H892.073V265.146Z" fill="url(#paint75_linear_175_198)"/>
<path d="M890.982 274.476C892.279 274.476 893.261 275.043 893.928 276.178C894.606 277.3 894.946 278.934 894.946 281.079C894.946 283.223 894.606 284.863 893.928 285.998C893.261 287.132 892.279 287.7 890.982 287.7C889.698 287.7 888.716 287.132 888.037 285.998C887.359 284.863 887.019 283.223 887.019 281.079C887.019 278.946 887.359 277.313 888.037 276.178C888.716 275.043 889.698 274.476 890.982 274.476ZM888.31 281.079C888.31 282.6 888.443 283.791 888.71 284.651L892.746 276.365C892.322 275.779 891.734 275.486 890.982 275.486C890.146 275.486 889.492 275.947 889.019 276.87C888.546 277.78 888.31 279.183 888.31 281.079ZM890.982 286.671C891.831 286.671 892.491 286.216 892.964 285.306C893.437 284.383 893.673 282.974 893.673 281.079C893.673 279.47 893.522 278.223 893.219 277.338L889.183 285.698C889.619 286.347 890.219 286.671 890.982 286.671Z" fill="url(#paint76_linear_175_198)"/>
<path d="M892.073 307.897H894.746V308.889H887.819V307.897H890.91V297.386L887.965 299.2L887.456 298.358L891.092 296.039H892.073V307.897Z" fill="url(#paint77_linear_175_198)"/>
<path d="M892.073 329.273H894.746V330.265H887.819V329.273H890.91V318.762L887.965 320.576L887.456 319.734L891.092 317.415H892.073V329.273Z" fill="url(#paint78_linear_175_198)"/>
<path d="M925.835 179.642H928.507V180.633H921.581V179.642H924.671V169.13L921.726 170.945L921.217 170.103L924.853 167.784H925.835V179.642Z" fill="url(#paint79_linear_175_198)"/>
<path d="M924.744 188.973C926.041 188.973 927.022 189.54 927.689 190.675C928.368 191.797 928.707 193.43 928.707 195.575C928.707 197.72 928.368 199.359 927.689 200.494C927.022 201.629 926.041 202.196 924.744 202.196C923.459 202.196 922.477 201.629 921.799 200.494C921.12 199.359 920.781 197.72 920.781 195.575C920.781 193.443 921.12 191.809 921.799 190.675C922.477 189.54 923.459 188.973 924.744 188.973ZM922.071 195.575C922.071 197.096 922.205 198.287 922.471 199.147L926.507 190.862C926.083 190.276 925.495 189.983 924.744 189.983C923.908 189.983 923.253 190.444 922.78 191.367C922.308 192.277 922.071 193.68 922.071 195.575ZM924.744 201.168C925.592 201.168 926.253 200.712 926.725 199.802C927.198 198.879 927.434 197.47 927.434 195.575C927.434 193.967 927.283 192.72 926.98 191.834L922.944 200.195C923.38 200.843 923.98 201.168 924.744 201.168Z" fill="url(#paint80_linear_175_198)"/>
<path d="M925.835 222.394H928.507V223.385H921.581V222.394H924.671V211.882L921.726 213.696L921.217 212.855L924.853 210.535H925.835V222.394Z" fill="url(#paint81_linear_175_198)"/>
<path d="M925.835 243.77H928.507V244.761H921.581V243.77H924.671V233.258L921.726 235.072L921.217 234.231L924.853 231.911H925.835V243.77Z" fill="url(#paint82_linear_175_198)"/>
<path d="M924.744 253.1C926.041 253.1 927.022 253.668 927.689 254.802C928.368 255.925 928.707 257.558 928.707 259.703C928.707 261.847 928.368 263.487 927.689 264.622C927.022 265.757 926.041 266.324 924.744 266.324C923.459 266.324 922.477 265.757 921.799 264.622C921.12 263.487 920.781 261.847 920.781 259.703C920.781 257.57 921.12 255.937 921.799 254.802C922.477 253.668 923.459 253.1 924.744 253.1ZM922.071 259.703C922.071 261.224 922.205 262.415 922.471 263.275L926.507 254.989C926.083 254.403 925.495 254.11 924.744 254.11C923.908 254.11 923.253 254.572 922.78 255.494C922.308 256.405 922.071 257.807 922.071 259.703ZM924.744 265.295C925.592 265.295 926.253 264.84 926.725 263.93C927.198 263.007 927.434 261.598 927.434 259.703C927.434 258.094 927.283 256.847 926.98 255.962L922.944 264.323C923.38 264.971 923.98 265.295 924.744 265.295Z" fill="url(#paint83_linear_175_198)"/>
<path d="M925.835 286.521H928.507V287.513H921.581V286.521H924.671V276.01L921.726 277.824L921.217 276.982L924.853 274.663H925.835V286.521Z" fill="url(#paint84_linear_175_198)"/>
<path d="M925.835 307.897H928.507V308.889H921.581V307.897H924.671V297.386L921.726 299.2L921.217 298.358L924.853 296.039H925.835V307.897Z" fill="url(#paint85_linear_175_198)"/>
<path d="M924.744 317.228C926.041 317.228 927.022 317.795 927.689 318.93C928.368 320.052 928.707 321.686 928.707 323.83C928.707 325.975 928.368 327.615 927.689 328.749C927.022 329.884 926.041 330.452 924.744 330.452C923.459 330.452 922.477 329.884 921.799 328.749C921.12 327.615 920.781 325.975 920.781 323.83C920.781 321.698 921.12 320.065 921.799 318.93C922.477 317.795 923.459 317.228 924.744 317.228ZM922.071 323.83C922.071 325.352 922.205 326.542 922.471 327.403L926.507 319.117C926.083 318.531 925.495 318.238 924.744 318.238C923.908 318.238 923.253 318.699 922.78 319.622C922.308 320.532 922.071 321.935 922.071 323.83ZM924.744 329.423C925.592 329.423 926.253 328.968 926.725 328.057C927.198 327.135 927.434 325.726 927.434 323.83C927.434 322.222 927.283 320.975 926.98 320.09L922.944 328.45C923.38 329.099 923.98 329.423 924.744 329.423Z" fill="url(#paint86_linear_175_198)"/>
<path d="M925.835 350.649H928.507V351.64H921.581V350.649H924.671V340.138L921.726 341.952L921.217 341.11L924.853 338.791H925.835V350.649Z" fill="url(#paint87_linear_175_198)"/>
<path d="M924.744 359.98C926.041 359.98 927.022 360.547 927.689 361.682C928.368 362.804 928.707 364.437 928.707 366.582C928.707 368.727 928.368 370.367 927.689 371.501C927.022 372.636 926.041 373.203 924.744 373.203C923.459 373.203 922.477 372.636 921.799 371.501C921.12 370.367 920.781 368.727 920.781 366.582C920.781 364.45 921.12 362.816 921.799 361.682C922.477 360.547 923.459 359.98 924.744 359.98ZM922.071 366.582C922.071 368.103 922.205 369.294 922.471 370.155L926.507 361.869C926.083 361.283 925.495 360.99 924.744 360.99C923.908 360.99 923.253 361.451 922.78 362.374C922.308 363.284 922.071 364.687 922.071 366.582ZM924.744 372.175C925.592 372.175 926.253 371.719 926.725 370.809C927.198 369.887 927.434 368.477 927.434 366.582C927.434 364.974 927.283 363.727 926.98 362.841L922.944 371.202C923.38 371.85 923.98 372.175 924.744 372.175Z" fill="url(#paint88_linear_175_198)"/>
<path d="M958.505 167.597C959.802 167.597 960.784 168.164 961.45 169.299C962.129 170.421 962.468 172.054 962.468 174.199C962.468 176.344 962.129 177.984 961.45 179.118C960.784 180.253 959.802 180.82 958.505 180.82C957.221 180.82 956.239 180.253 955.56 179.118C954.881 177.984 954.542 176.344 954.542 174.199C954.542 172.067 954.881 170.433 955.56 169.299C956.239 168.164 957.221 167.597 958.505 167.597ZM955.833 174.199C955.833 175.72 955.966 176.911 956.233 177.772L960.269 169.486C959.844 168.9 959.257 168.607 958.505 168.607C957.669 168.607 957.014 169.068 956.542 169.991C956.069 170.901 955.833 172.304 955.833 174.199ZM958.505 179.792C959.354 179.792 960.014 179.336 960.487 178.426C960.959 177.504 961.196 176.094 961.196 174.199C961.196 172.591 961.044 171.344 960.741 170.458L956.705 178.819C957.142 179.467 957.742 179.792 958.505 179.792Z" fill="url(#paint89_linear_175_198)"/>
<path d="M959.596 201.018H962.268V202.009H955.342V201.018H958.432V190.506L955.487 192.321L954.978 191.479L958.614 189.16H959.596V201.018Z" fill="url(#paint90_linear_175_198)"/>
<path d="M959.596 222.394H962.268V223.385H955.342V222.394H958.432V211.882L955.487 213.696L954.978 212.855L958.614 210.535H959.596V222.394Z" fill="url(#paint91_linear_175_198)"/>
<path d="M958.505 231.724C959.802 231.724 960.784 232.292 961.45 233.426C962.129 234.549 962.468 236.182 962.468 238.327C962.468 240.472 962.129 242.111 961.45 243.246C960.784 244.381 959.802 244.948 958.505 244.948C957.221 244.948 956.239 244.381 955.56 243.246C954.881 242.111 954.542 240.472 954.542 238.327C954.542 236.195 954.881 234.561 955.56 233.426C956.239 232.292 957.221 231.724 958.505 231.724ZM955.833 238.327C955.833 239.848 955.966 241.039 956.233 241.899L960.269 233.613C959.844 233.027 959.257 232.734 958.505 232.734C957.669 232.734 957.014 233.196 956.542 234.118C956.069 235.029 955.833 236.431 955.833 238.327ZM958.505 243.919C959.354 243.919 960.014 243.464 960.487 242.554C960.959 241.631 961.196 240.222 961.196 238.327C961.196 236.718 961.044 235.471 960.741 234.586L956.705 242.947C957.142 243.595 957.742 243.919 958.505 243.919Z" fill="url(#paint92_linear_175_198)"/>
<path d="M958.505 253.1C959.802 253.1 960.784 253.668 961.45 254.802C962.129 255.925 962.468 257.558 962.468 259.703C962.468 261.847 962.129 263.487 961.45 264.622C960.784 265.757 959.802 266.324 958.505 266.324C957.221 266.324 956.239 265.757 955.56 264.622C954.881 263.487 954.542 261.847 954.542 259.703C954.542 257.57 954.881 255.937 955.56 254.802C956.239 253.668 957.221 253.1 958.505 253.1ZM955.833 259.703C955.833 261.224 955.966 262.415 956.233 263.275L960.269 254.989C959.844 254.403 959.257 254.11 958.505 254.11C957.669 254.11 957.014 254.572 956.542 255.494C956.069 256.405 955.833 257.807 955.833 259.703ZM958.505 265.295C959.354 265.295 960.014 264.84 960.487 263.93C960.959 263.007 961.196 261.598 961.196 259.703C961.196 258.094 961.044 256.847 960.741 255.962L956.705 264.323C957.142 264.971 957.742 265.295 958.505 265.295Z" fill="url(#paint93_linear_175_198)"/>
</g>
<defs>
<filter id="filter0_f_175_198" x="-472.19" y="-522.19" width="2019.38" height="1456.86" filterUnits="userSpaceOnUse" color-interpolation-filters="sRGB">
<feFlood flood-opacity="0" result="BackgroundImageFix"/>
<feBlend mode="normal" in="SourceGraphic" in2="BackgroundImageFix" result="shape"/>
<feGaussianBlur stdDeviation="200.095" result="effect1_foregroundBlur_175_198"/>
</filter>
<linearGradient id="paint0_linear_175_198" x1="119.349" y1="427.571" x2="119.349" y2="719.595" gradientUnits="userSpaceOnUse">
<stop stop-color="#F7DD43"/>
<stop offset="1" stop-color="#F7DD43" stop-opacity="0"/>
</linearGradient>
<linearGradient id="paint1_linear_175_198" x1="119.349" y1="427.571" x2="119.349" y2="719.595" gradientUnits="userSpaceOnUse">
<stop stop-color="#F7DD43"/>
<stop offset="1" stop-color="#F7DD43" stop-opacity="0"/>
</linearGradient>
<linearGradient id="paint2_linear_175_198" x1="119.349" y1="427.571" x2="119.349" y2="719.595" gradientUnits="userSpaceOnUse">
<stop stop-color="#F7DD43"/>
<stop offset="1" stop-color="#F7DD43" stop-opacity="0"/>
</linearGradient>
<linearGradient id="paint3_linear_175_198" x1="119.349" y1="427.571" x2="119.349" y2="719.595" gradientUnits="userSpaceOnUse">
<stop stop-color="#F7DD43"/>
<stop offset="1" stop-color="#F7DD43" stop-opacity="0"/>
</linearGradient>
<linearGradient id="paint4_linear_175_198" x1="119.349" y1="427.571" x2="119.349" y2="719.595" gradientUnits="userSpaceOnUse">
<stop stop-color="#F7DD43"/>
<stop offset="1" stop-color="#F7DD43" stop-opacity="0"/>
</linearGradient>
<linearGradient id="paint5_linear_175_198" x1="119.349" y1="427.571" x2="119.349" y2="719.595" gradientUnits="userSpaceOnUse">
<stop stop-color="#F7DD43"/>
<stop offset="1" stop-color="#F7DD43" stop-opacity="0"/>
</linearGradient>
<linearGradient id="paint6_linear_175_198" x1="119.349" y1="427.571" x2="119.349" y2="719.595" gradientUnits="userSpaceOnUse">
<stop stop-color="#F7DD43"/>
<stop offset="1" stop-color="#F7DD43" stop-opacity="0"/>
</linearGradient>
<linearGradient id="paint7_linear_175_198" x1="119.349" y1="427.571" x2="119.349" y2="719.595" gradientUnits="userSpaceOnUse">
<stop stop-color="#F7DD43"/>
<stop offset="1" stop-color="#F7DD43" stop-opacity="0"/>
</linearGradient>
<linearGradient id="paint8_linear_175_198" x1="119.349" y1="427.571" x2="119.349" y2="719.595" gradientUnits="userSpaceOnUse">
<stop stop-color="#F7DD43"/>
<stop offset="1" stop-color="#F7DD43" stop-opacity="0"/>
</linearGradient>
<linearGradient id="paint9_linear_175_198" x1="119.349" y1="427.571" x2="119.349" y2="719.595" gradientUnits="userSpaceOnUse">
<stop stop-color="#F7DD43"/>
<stop offset="1" stop-color="#F7DD43" stop-opacity="0"/>
</linearGradient>
<linearGradient id="paint10_linear_175_198" x1="119.349" y1="427.571" x2="119.349" y2="719.595" gradientUnits="userSpaceOnUse">
<stop stop-color="#F7DD43"/>
<stop offset="1" stop-color="#F7DD43" stop-opacity="0"/>
</linearGradient>
<linearGradient id="paint11_linear_175_198" x1="119.349" y1="427.571" x2="119.349" y2="719.595" gradientUnits="userSpaceOnUse">
<stop stop-color="#F7DD43"/>
<stop offset="1" stop-color="#F7DD43" stop-opacity="0"/>
</linearGradient>
<linearGradient id="paint12_linear_175_198" x1="119.349" y1="427.571" x2="119.349" y2="719.595" gradientUnits="userSpaceOnUse">
<stop stop-color="#F7DD43"/>
<stop offset="1" stop-color="#F7DD43" stop-opacity="0"/>
</linearGradient>
<linearGradient id="paint13_linear_175_198" x1="119.349" y1="427.571" x2="119.349" y2="719.595" gradientUnits="userSpaceOnUse">
<stop stop-color="#F7DD43"/>
<stop offset="1" stop-color="#F7DD43" stop-opacity="0"/>
</linearGradient>
<linearGradient id="paint14_linear_175_198" x1="119.349" y1="427.571" x2="119.349" y2="719.595" gradientUnits="userSpaceOnUse">
<stop stop-color="#F7DD43"/>
<stop offset="1" stop-color="#F7DD43" stop-opacity="0"/>
</linearGradient>
<linearGradient id="paint15_linear_175_198" x1="119.349" y1="427.571" x2="119.349" y2="719.595" gradientUnits="userSpaceOnUse">
<stop stop-color="#F7DD43"/>
<stop offset="1" stop-color="#F7DD43" stop-opacity="0"/>
</linearGradient>
<linearGradient id="paint16_linear_175_198" x1="119.349" y1="427.571" x2="119.349" y2="719.595" gradientUnits="userSpaceOnUse">
<stop stop-color="#F7DD43"/>
<stop offset="1" stop-color="#F7DD43" stop-opacity="0"/>
</linearGradient>
<linearGradient id="paint17_linear_175_198" x1="119.349" y1="427.571" x2="119.349" y2="719.595" gradientUnits="userSpaceOnUse">
<stop stop-color="#F7DD43"/>
<stop offset="1" stop-color="#F7DD43" stop-opacity="0"/>
</linearGradient>
<linearGradient id="paint18_linear_175_198" x1="119.349" y1="427.571" x2="119.349" y2="719.595" gradientUnits="userSpaceOnUse">
<stop stop-color="#F7DD43"/>
<stop offset="1" stop-color="#F7DD43" stop-opacity="0"/>
</linearGradient>
<linearGradient id="paint19_linear_175_198" x1="119.349" y1="427.571" x2="119.349" y2="719.595" gradientUnits="userSpaceOnUse">
<stop stop-color="#F7DD43"/>
<stop offset="1" stop-color="#F7DD43" stop-opacity="0"/>
</linearGradient>
<linearGradient id="paint20_linear_175_198" x1="119.349" y1="427.571" x2="119.349" y2="719.595" gradientUnits="userSpaceOnUse">
<stop stop-color="#F7DD43"/>
<stop offset="1" stop-color="#F7DD43" stop-opacity="0"/>
</linearGradient>
<linearGradient id="paint21_linear_175_198" x1="119.349" y1="427.571" x2="119.349" y2="719.595" gradientUnits="userSpaceOnUse">
<stop stop-color="#F7DD43"/>
<stop offset="1" stop-color="#F7DD43" stop-opacity="0"/>
</linearGradient>
<linearGradient id="paint22_linear_175_198" x1="119.349" y1="427.571" x2="119.349" y2="719.595" gradientUnits="userSpaceOnUse">
<stop stop-color="#F7DD43"/>
<stop offset="1" stop-color="#F7DD43" stop-opacity="0"/>
</linearGradient>
<linearGradient id="paint23_linear_175_198" x1="119.349" y1="427.571" x2="119.349" y2="719.595" gradientUnits="userSpaceOnUse">
<stop stop-color="#F7DD43"/>
<stop offset="1" stop-color="#F7DD43" stop-opacity="0"/>
</linearGradient>
<linearGradient id="paint24_linear_175_198" x1="119.349" y1="427.571" x2="119.349" y2="719.595" gradientUnits="userSpaceOnUse">
<stop stop-color="#F7DD43"/>
<stop offset="1" stop-color="#F7DD43" stop-opacity="0"/>
</linearGradient>
<linearGradient id="paint25_linear_175_198" x1="119.349" y1="427.571" x2="119.349" y2="719.595" gradientUnits="userSpaceOnUse">
<stop stop-color="#F7DD43"/>
<stop offset="1" stop-color="#F7DD43" stop-opacity="0"/>
</linearGradient>
<linearGradient id="paint26_linear_175_198" x1="119.349" y1="427.571" x2="119.349" y2="719.595" gradientUnits="userSpaceOnUse">
<stop stop-color="#F7DD43"/>
<stop offset="1" stop-color="#F7DD43" stop-opacity="0"/>
</linearGradient>
<linearGradient id="paint27_linear_175_198" x1="119.349" y1="427.571" x2="119.349" y2="719.595" gradientUnits="userSpaceOnUse">
<stop stop-color="#F7DD43"/>
<stop offset="1" stop-color="#F7DD43" stop-opacity="0"/>
</linearGradient>
<linearGradient id="paint28_linear_175_198" x1="119.349" y1="427.571" x2="119.349" y2="719.595" gradientUnits="userSpaceOnUse">
<stop stop-color="#F7DD43"/>
<stop offset="1" stop-color="#F7DD43" stop-opacity="0"/>
</linearGradient>
<linearGradient id="paint29_linear_175_198" x1="119.349" y1="427.571" x2="119.349" y2="719.595" gradientUnits="userSpaceOnUse">
<stop stop-color="#F7DD43"/>
<stop offset="1" stop-color="#F7DD43" stop-opacity="0"/>
</linearGradient>
<linearGradient id="paint30_linear_175_198" x1="119.349" y1="427.571" x2="119.349" y2="719.595" gradientUnits="userSpaceOnUse">
<stop stop-color="#F7DD43"/>
<stop offset="1" stop-color="#F7DD43" stop-opacity="0"/>
</linearGradient>
<linearGradient id="paint31_linear_175_198" x1="119.349" y1="427.571" x2="119.349" y2="719.595" gradientUnits="userSpaceOnUse">
<stop stop-color="#F7DD43"/>
<stop offset="1" stop-color="#F7DD43" stop-opacity="0"/>
</linearGradient>
<linearGradient id="paint32_linear_175_198" x1="119.349" y1="427.571" x2="119.349" y2="719.595" gradientUnits="userSpaceOnUse">
<stop stop-color="#F7DD43"/>
<stop offset="1" stop-color="#F7DD43" stop-opacity="0"/>
</linearGradient>
<linearGradient id="paint33_linear_175_198" x1="119.349" y1="427.571" x2="119.349" y2="719.595" gradientUnits="userSpaceOnUse">
<stop stop-color="#F7DD43"/>
<stop offset="1" stop-color="#F7DD43" stop-opacity="0"/>
</linearGradient>
<linearGradient id="paint34_linear_175_198" x1="119.349" y1="427.571" x2="119.349" y2="719.595" gradientUnits="userSpaceOnUse">
<stop stop-color="#F7DD43"/>
<stop offset="1" stop-color="#F7DD43" stop-opacity="0"/>
</linearGradient>
<linearGradient id="paint35_linear_175_198" x1="119.349" y1="427.571" x2="119.349" y2="719.595" gradientUnits="userSpaceOnUse">
<stop stop-color="#F7DD43"/>
<stop offset="1" stop-color="#F7DD43" stop-opacity="0"/>
</linearGradient>
<linearGradient id="paint36_linear_175_198" x1="119.349" y1="427.571" x2="119.349" y2="719.595" gradientUnits="userSpaceOnUse">
<stop stop-color="#F7DD43"/>
<stop offset="1" stop-color="#F7DD43" stop-opacity="0"/>
</linearGradient>
<linearGradient id="paint37_linear_175_198" x1="119.349" y1="427.571" x2="119.349" y2="719.595" gradientUnits="userSpaceOnUse">
<stop stop-color="#F7DD43"/>
<stop offset="1" stop-color="#F7DD43" stop-opacity="0"/>
</linearGradient>
<linearGradient id="paint38_linear_175_198" x1="119.349" y1="427.571" x2="119.349" y2="719.595" gradientUnits="userSpaceOnUse">
<stop stop-color="#F7DD43"/>
<stop offset="1" stop-color="#F7DD43" stop-opacity="0"/>
</linearGradient>
<linearGradient id="paint39_linear_175_198" x1="119.349" y1="427.571" x2="119.349" y2="719.595" gradientUnits="userSpaceOnUse">
<stop stop-color="#F7DD43"/>
<stop offset="1" stop-color="#F7DD43" stop-opacity="0"/>
</linearGradient>
<linearGradient id="paint40_linear_175_198" x1="119.349" y1="427.571" x2="119.349" y2="719.595" gradientUnits="userSpaceOnUse">
<stop stop-color="#F7DD43"/>
<stop offset="1" stop-color="#F7DD43" stop-opacity="0"/>
</linearGradient>
<linearGradient id="paint41_linear_175_198" x1="119.349" y1="427.571" x2="119.349" y2="719.595" gradientUnits="userSpaceOnUse">
<stop stop-color="#F7DD43"/>
<stop offset="1" stop-color="#F7DD43" stop-opacity="0"/>
</linearGradient>
<linearGradient id="paint42_linear_175_198" x1="119.349" y1="427.571" x2="119.349" y2="719.595" gradientUnits="userSpaceOnUse">
<stop stop-color="#F7DD43"/>
<stop offset="1" stop-color="#F7DD43" stop-opacity="0"/>
</linearGradient>
<linearGradient id="paint43_linear_175_198" x1="119.349" y1="427.571" x2="119.349" y2="719.595" gradientUnits="userSpaceOnUse">
<stop stop-color="#F7DD43"/>
<stop offset="1" stop-color="#F7DD43" stop-opacity="0"/>
</linearGradient>
<linearGradient id="paint44_linear_175_198" x1="119.349" y1="427.571" x2="119.349" y2="719.595" gradientUnits="userSpaceOnUse">
<stop stop-color="#F7DD43"/>
<stop offset="1" stop-color="#F7DD43" stop-opacity="0"/>
</linearGradient>
<linearGradient id="paint45_linear_175_198" x1="119.349" y1="427.571" x2="119.349" y2="719.595" gradientUnits="userSpaceOnUse">
<stop stop-color="#F7DD43"/>
<stop offset="1" stop-color="#F7DD43" stop-opacity="0"/>
</linearGradient>
<linearGradient id="paint46_linear_175_198" x1="119.349" y1="427.571" x2="119.349" y2="719.595" gradientUnits="userSpaceOnUse">
<stop stop-color="#F7DD43"/>
<stop offset="1" stop-color="#F7DD43" stop-opacity="0"/>
</linearGradient>
<linearGradient id="paint47_linear_175_198" x1="924.744" y1="146.221" x2="924.744" y2="426.463" gradientUnits="userSpaceOnUse">
<stop stop-color="#F7DD43"/>
<stop offset="1" stop-color="#F7DD43" stop-opacity="0"/>
</linearGradient>
<linearGradient id="paint48_linear_175_198" x1="924.744" y1="146.221" x2="924.744" y2="426.463" gradientUnits="userSpaceOnUse">
<stop stop-color="#F7DD43"/>
<stop offset="1" stop-color="#F7DD43" stop-opacity="0"/>
</linearGradient>
<linearGradient id="paint49_linear_175_198" x1="924.744" y1="146.221" x2="924.744" y2="426.463" gradientUnits="userSpaceOnUse">
<stop stop-color="#F7DD43"/>
<stop offset="1" stop-color="#F7DD43" stop-opacity="0"/>
</linearGradient>
<linearGradient id="paint50_linear_175_198" x1="924.744" y1="146.221" x2="924.744" y2="426.463" gradientUnits="userSpaceOnUse">
<stop stop-color="#F7DD43"/>
<stop offset="1" stop-color="#F7DD43" stop-opacity="0"/>
</linearGradient>
<linearGradient id="paint51_linear_175_198" x1="924.744" y1="146.221" x2="924.744" y2="426.463" gradientUnits="userSpaceOnUse">
<stop stop-color="#F7DD43"/>
<stop offset="1" stop-color="#F7DD43" stop-opacity="0"/>
</linearGradient>
<linearGradient id="paint52_linear_175_198" x1="924.744" y1="146.221" x2="924.744" y2="426.463" gradientUnits="userSpaceOnUse">
<stop stop-color="#F7DD43"/>
<stop offset="1" stop-color="#F7DD43" stop-opacity="0"/>
</linearGradient>
<linearGradient id="paint53_linear_175_198" x1="924.744" y1="146.221" x2="924.744" y2="426.463" gradientUnits="userSpaceOnUse">
<stop stop-color="#F7DD43"/>
<stop offset="1" stop-color="#F7DD43" stop-opacity="0"/>
</linearGradient>
<linearGradient id="paint54_linear_175_198" x1="924.744" y1="146.221" x2="924.744" y2="426.463" gradientUnits="userSpaceOnUse">
<stop stop-color="#F7DD43"/>
<stop offset="1" stop-color="#F7DD43" stop-opacity="0"/>
</linearGradient>
<linearGradient id="paint55_linear_175_198" x1="924.744" y1="146.221" x2="924.744" y2="426.463" gradientUnits="userSpaceOnUse">
<stop stop-color="#F7DD43"/>
<stop offset="1" stop-color="#F7DD43" stop-opacity="0"/>
</linearGradient>
<linearGradient id="paint56_linear_175_198" x1="924.744" y1="146.221" x2="924.744" y2="426.463" gradientUnits="userSpaceOnUse">
<stop stop-color="#F7DD43"/>
<stop offset="1" stop-color="#F7DD43" stop-opacity="0"/>
</linearGradient>
<linearGradient id="paint57_linear_175_198" x1="924.744" y1="146.221" x2="924.744" y2="426.463" gradientUnits="userSpaceOnUse">
<stop stop-color="#F7DD43"/>
<stop offset="1" stop-color="#F7DD43" stop-opacity="0"/>
</linearGradient>
<linearGradient id="paint58_linear_175_198" x1="924.744" y1="146.221" x2="924.744" y2="426.463" gradientUnits="userSpaceOnUse">
<stop stop-color="#F7DD43"/>
<stop offset="1" stop-color="#F7DD43" stop-opacity="0"/>
</linearGradient>
<linearGradient id="paint59_linear_175_198" x1="924.744" y1="146.221" x2="924.744" y2="426.463" gradientUnits="userSpaceOnUse">
<stop stop-color="#F7DD43"/>
<stop offset="1" stop-color="#F7DD43" stop-opacity="0"/>
</linearGradient>
<linearGradient id="paint60_linear_175_198" x1="924.744" y1="146.221" x2="924.744" y2="426.463" gradientUnits="userSpaceOnUse">
<stop stop-color="#F7DD43"/>
<stop offset="1" stop-color="#F7DD43" stop-opacity="0"/>
</linearGradient>
<linearGradient id="paint61_linear_175_198" x1="924.744" y1="146.221" x2="924.744" y2="426.463" gradientUnits="userSpaceOnUse">
<stop stop-color="#F7DD43"/>
<stop offset="1" stop-color="#F7DD43" stop-opacity="0"/>
</linearGradient>
<linearGradient id="paint62_linear_175_198" x1="924.744" y1="146.221" x2="924.744" y2="426.463" gradientUnits="userSpaceOnUse">
<stop stop-color="#F7DD43"/>
<stop offset="1" stop-color="#F7DD43" stop-opacity="0"/>
</linearGradient>
<linearGradient id="paint63_linear_175_198" x1="924.744" y1="146.221" x2="924.744" y2="426.463" gradientUnits="userSpaceOnUse">
<stop stop-color="#F7DD43"/>
<stop offset="1" stop-color="#F7DD43" stop-opacity="0"/>
</linearGradient>
<linearGradient id="paint64_linear_175_198" x1="924.744" y1="146.221" x2="924.744" y2="426.463" gradientUnits="userSpaceOnUse">
<stop stop-color="#F7DD43"/>
<stop offset="1" stop-color="#F7DD43" stop-opacity="0"/>
</linearGradient>
<linearGradient id="paint65_linear_175_198" x1="924.744" y1="146.221" x2="924.744" y2="426.463" gradientUnits="userSpaceOnUse">
<stop stop-color="#F7DD43"/>
<stop offset="1" stop-color="#F7DD43" stop-opacity="0"/>
</linearGradient>
<linearGradient id="paint66_linear_175_198" x1="924.744" y1="146.221" x2="924.744" y2="426.463" gradientUnits="userSpaceOnUse">
<stop stop-color="#F7DD43"/>
<stop offset="1" stop-color="#F7DD43" stop-opacity="0"/>
</linearGradient>
<linearGradient id="paint67_linear_175_198" x1="924.744" y1="146.221" x2="924.744" y2="426.463" gradientUnits="userSpaceOnUse">
<stop stop-color="#F7DD43"/>
<stop offset="1" stop-color="#F7DD43" stop-opacity="0"/>
</linearGradient>
<linearGradient id="paint68_linear_175_198" x1="924.744" y1="146.221" x2="924.744" y2="426.463" gradientUnits="userSpaceOnUse">
<stop stop-color="#F7DD43"/>
<stop offset="1" stop-color="#F7DD43" stop-opacity="0"/>
</linearGradient>
<linearGradient id="paint69_linear_175_198" x1="924.744" y1="146.221" x2="924.744" y2="426.463" gradientUnits="userSpaceOnUse">
<stop stop-color="#F7DD43"/>
<stop offset="1" stop-color="#F7DD43" stop-opacity="0"/>
</linearGradient>
<linearGradient id="paint70_linear_175_198" x1="924.744" y1="146.221" x2="924.744" y2="426.463" gradientUnits="userSpaceOnUse">
<stop stop-color="#F7DD43"/>
<stop offset="1" stop-color="#F7DD43" stop-opacity="0"/>
</linearGradient>
<linearGradient id="paint71_linear_175_198" x1="924.744" y1="146.221" x2="924.744" y2="426.463" gradientUnits="userSpaceOnUse">
<stop stop-color="#F7DD43"/>
<stop offset="1" stop-color="#F7DD43" stop-opacity="0"/>
</linearGradient>
<linearGradient id="paint72_linear_175_198" x1="924.744" y1="146.221" x2="924.744" y2="426.463" gradientUnits="userSpaceOnUse">
<stop stop-color="#F7DD43"/>
<stop offset="1" stop-color="#F7DD43" stop-opacity="0"/>
</linearGradient>
<linearGradient id="paint73_linear_175_198" x1="924.744" y1="146.221" x2="924.744" y2="426.463" gradientUnits="userSpaceOnUse">
<stop stop-color="#F7DD43"/>
<stop offset="1" stop-color="#F7DD43" stop-opacity="0"/>
</linearGradient>
<linearGradient id="paint74_linear_175_198" x1="924.744" y1="146.221" x2="924.744" y2="426.463" gradientUnits="userSpaceOnUse">
<stop stop-color="#F7DD43"/>
<stop offset="1" stop-color="#F7DD43" stop-opacity="0"/>
</linearGradient>
<linearGradient id="paint75_linear_175_198" x1="924.744" y1="146.221" x2="924.744" y2="426.463" gradientUnits="userSpaceOnUse">
<stop stop-color="#F7DD43"/>
<stop offset="1" stop-color="#F7DD43" stop-opacity="0"/>
</linearGradient>
<linearGradient id="paint76_linear_175_198" x1="924.744" y1="146.221" x2="924.744" y2="426.463" gradientUnits="userSpaceOnUse">
<stop stop-color="#F7DD43"/>
<stop offset="1" stop-color="#F7DD43" stop-opacity="0"/>
</linearGradient>
<linearGradient id="paint77_linear_175_198" x1="924.744" y1="146.221" x2="924.744" y2="426.463" gradientUnits="userSpaceOnUse">
<stop stop-color="#F7DD43"/>
<stop offset="1" stop-color="#F7DD43" stop-opacity="0"/>
</linearGradient>
<linearGradient id="paint78_linear_175_198" x1="924.744" y1="146.221" x2="924.744" y2="426.463" gradientUnits="userSpaceOnUse">
<stop stop-color="#F7DD43"/>
<stop offset="1" stop-color="#F7DD43" stop-opacity="0"/>
</linearGradient>
<linearGradient id="paint79_linear_175_198" x1="924.744" y1="146.221" x2="924.744" y2="426.463" gradientUnits="userSpaceOnUse">
<stop stop-color="#F7DD43"/>
<stop offset="1" stop-color="#F7DD43" stop-opacity="0"/>
</linearGradient>
<linearGradient id="paint80_linear_175_198" x1="924.744" y1="146.221" x2="924.744" y2="426.463" gradientUnits="userSpaceOnUse">
<stop stop-color="#F7DD43"/>
<stop offset="1" stop-color="#F7DD43" stop-opacity="0"/>
</linearGradient>
<linearGradient id="paint81_linear_175_198" x1="924.744" y1="146.221" x2="924.744" y2="426.463" gradientUnits="userSpaceOnUse">
<stop stop-color="#F7DD43"/>
<stop offset="1" stop-color="#F7DD43" stop-opacity="0"/>
</linearGradient>
<linearGradient id="paint82_linear_175_198" x1="924.744" y1="146.221" x2="924.744" y2="426.463" gradientUnits="userSpaceOnUse">
<stop stop-color="#F7DD43"/>
<stop offset="1" stop-color="#F7DD43" stop-opacity="0"/>
</linearGradient>
<linearGradient id="paint83_linear_175_198" x1="924.744" y1="146.221" x2="924.744" y2="426.463" gradientUnits="userSpaceOnUse">
<stop stop-color="#F7DD43"/>
<stop offset="1" stop-color="#F7DD43" stop-opacity="0"/>
</linearGradient>
<linearGradient id="paint84_linear_175_198" x1="924.744" y1="146.221" x2="924.744" y2="426.463" gradientUnits="userSpaceOnUse">
<stop stop-color="#F7DD43"/>
<stop offset="1" stop-color="#F7DD43" stop-opacity="0"/>
</linearGradient>
<linearGradient id="paint85_linear_175_198" x1="924.744" y1="146.221" x2="924.744" y2="426.463" gradientUnits="userSpaceOnUse">
<stop stop-color="#F7DD43"/>
<stop offset="1" stop-color="#F7DD43" stop-opacity="0"/>
</linearGradient>
<linearGradient id="paint86_linear_175_198" x1="924.744" y1="146.221" x2="924.744" y2="426.463" gradientUnits="userSpaceOnUse">
<stop stop-color="#F7DD43"/>
<stop offset="1" stop-color="#F7DD43" stop-opacity="0"/>
</linearGradient>
<linearGradient id="paint87_linear_175_198" x1="924.744" y1="146.221" x2="924.744" y2="426.463" gradientUnits="userSpaceOnUse">
<stop stop-color="#F7DD43"/>
<stop offset="1" stop-color="#F7DD43" stop-opacity="0"/>
</linearGradient>
<linearGradient id="paint88_linear_175_198" x1="924.744" y1="146.221" x2="924.744" y2="426.463" gradientUnits="userSpaceOnUse">
<stop stop-color="#F7DD43"/>
<stop offset="1" stop-color="#F7DD43" stop-opacity="0"/>
</linearGradient>
<linearGradient id="paint89_linear_175_198" x1="924.744" y1="146.221" x2="924.744" y2="426.463" gradientUnits="userSpaceOnUse">
<stop stop-color="#F7DD43"/>
<stop offset="1" stop-color="#F7DD43" stop-opacity="0"/>
</linearGradient>
<linearGradient id="paint90_linear_175_198" x1="924.744" y1="146.221" x2="924.744" y2="426.463" gradientUnits="userSpaceOnUse">
<stop stop-color="#F7DD43"/>
<stop offset="1" stop-color="#F7DD43" stop-opacity="0"/>
</linearGradient>
<linearGradient id="paint91_linear_175_198" x1="924.744" y1="146.221" x2="924.744" y2="426.463" gradientUnits="userSpaceOnUse">
<stop stop-color="#F7DD43"/>
<stop offset="1" stop-color="#F7DD43" stop-opacity="0"/>
</linearGradient>
<linearGradient id="paint92_linear_175_198" x1="924.744" y1="146.221" x2="924.744" y2="426.463" gradientUnits="userSpaceOnUse">
<stop stop-color="#F7DD43"/>
<stop offset="1" stop-color="#F7DD43" stop-opacity="0"/>
</linearGradient>
<linearGradient id="paint93_linear_175_198" x1="924.744" y1="146.221" x2="924.744" y2="426.463" gradientUnits="userSpaceOnUse">
<stop stop-color="#F7DD43"/>
<stop offset="1" stop-color="#F7DD43" stop-opacity="0"/>
</linearGradient>
</defs>
</svg>