<svg width="190" height="102" viewBox="0 0 190 102" fill="none" xmlns="http://www.w3.org/2000/svg">
<path fill-rule="evenodd" clip-rule="evenodd" d="M52.0126 9.2816V7.20316L46.267 9.33873H46.2561V11.4716H46.267L52.0126 13.6072V11.526L49.0664 10.3997L52.0126 9.27888V9.2816Z" fill="#F7DD43"/>
<path fill-rule="evenodd" clip-rule="evenodd" d="M85.2922 13.5037V11.4253L88.2358 10.3072L85.2922 9.18905V7.1106L91.0297 9.24618H91.0433V11.3817H91.0297L85.2922 13.5064V13.5037ZM82.8275 4.16977L79.4541 15H81.4564L84.8298 4.16977H82.8275Z" fill="#F7DD43"/>
<path fill-rule="evenodd" clip-rule="evenodd" d="M60.4543 6.91747C61.0256 7.54317 61.3249 8.3702 61.2895 9.21627V13.8302H59.2872V9.64066C59.3117 9.17274 59.1621 8.7157 58.8683 8.35116C58.5908 8.02742 58.18 7.84787 57.7529 7.86691C56.4987 7.86691 55.8703 8.73746 55.8703 10.4758V13.8302H53.868V6.25639H55.8703V6.93923C56.5069 6.32168 57.3693 5.99251 58.2562 6.03059C59.0832 5.99523 59.883 6.31896 60.4543 6.91747V6.91747Z" fill="#F7DD43"/>
<path fill-rule="evenodd" clip-rule="evenodd" d="M63.8413 3V13.8302H65.8436V3H63.8413Z" fill="#F7DD43"/>
<path fill-rule="evenodd" clip-rule="evenodd" d="M77.1661 13.8302H75.4958L73.858 9.36862L72.204 13.8302H70.5336L67.7261 6.2428H69.8671L71.445 10.7806L73.0718 6.2428H74.6361L76.2629 10.7942L77.8408 6.2428H79.9818L77.1716 13.8302H77.1661Z" fill="#F7DD43"/>
<path d="M100.58 17.9981C98.6533 17.9981 96.6295 17.6331 95.0433 16.754V1.24411C96.6046 0.389878 98.6284 2.85548e-05 100.58 2.85548e-05C102.531 2.85548e-05 104.507 0.365035 106.066 1.24411V7.19505H102.139V3.14558C101.677 2.95066 101.115 2.87804 100.555 2.87804C99.9948 2.87804 99.4807 2.95066 98.9934 3.14558V14.8525C99.4559 15.0475 99.9929 15.1201 100.555 15.1201C101.117 15.1201 101.652 15.0475 102.139 14.8525V10.805H106.066V16.7559C104.53 17.6101 102.506 17.9752 100.58 18V17.9981Z" fill="#F7DD43"/>
<path d="M113.431 17.9981C111.358 17.9981 109.359 17.5585 107.773 16.6565V1.3167C109.334 0.439536 111.335 0 113.431 0C115.528 0 117.479 0.414693 119.04 1.3167V16.6565C117.504 17.5585 115.48 17.9732 113.431 17.9981ZM115.115 3.19524C114.652 3.00031 114.091 2.90285 113.408 2.90285C112.726 2.90285 112.189 3.00031 111.725 3.19524V14.7799C112.187 14.9997 112.749 15.0971 113.408 15.0971C114.068 15.0971 114.628 14.9997 115.115 14.7799V3.19524Z" fill="#F7DD43"/>
<path d="M125.893 11.4127H124.844V17.7783H120.869V0.219779H125.893C128.284 0.219779 130.088 0.707092 131.502 1.70656V9.92589C130.113 10.9024 128.282 11.4127 125.893 11.4127ZM127.552 3.24303C127.187 2.97548 126.698 2.85318 125.868 2.85318H124.794V8.77927H125.868C126.673 8.77927 127.16 8.65697 127.552 8.41427V3.24303Z" fill="#F7DD43"/>
<path d="M139.817 17.7783V11.4127H136.891V17.7783H132.941V1.29185C134.38 0.437625 136.404 0 138.355 0C140.306 0 142.305 0.439537 143.744 1.29185V17.7783H139.817ZM139.817 3.04809C139.402 2.85316 138.89 2.7557 138.353 2.7557C137.816 2.7557 137.304 2.85316 136.889 3.04809V8.63211H139.815V3.04809H139.817Z" fill="#F7DD43"/>
<path d="M14.4775 47.9248H18.8574C18.7695 49.3604 18.374 50.6348 17.6709 51.748C16.9775 52.8613 16.0059 53.7305 14.7559 54.3555C13.5156 54.9805 12.0215 55.293 10.2734 55.293C8.90625 55.293 7.68066 55.0586 6.59668 54.5898C5.5127 54.1113 4.58496 53.4277 3.81348 52.5391C3.05176 51.6504 2.4707 50.5762 2.07031 49.3164C1.66992 48.0566 1.46973 46.6455 1.46973 45.083V43.6035C1.46973 42.041 1.6748 40.6299 2.08496 39.3701C2.50488 38.1006 3.10059 37.0215 3.87207 36.1328C4.65332 35.2441 5.58594 34.5605 6.66992 34.082C7.75391 33.6035 8.96484 33.3643 10.3027 33.3643C12.0801 33.3643 13.5791 33.6865 14.7998 34.3311C16.0303 34.9756 16.9824 35.8643 17.6562 36.9971C18.3398 38.1299 18.75 39.4189 18.8867 40.8643H14.4922C14.4434 40.0049 14.2725 39.2773 13.9795 38.6816C13.6865 38.0762 13.2422 37.6221 12.6465 37.3193C12.0605 37.0068 11.2793 36.8506 10.3027 36.8506C9.57031 36.8506 8.93066 36.9873 8.38379 37.2607C7.83691 37.5342 7.37793 37.9492 7.00684 38.5059C6.63574 39.0625 6.35742 39.7656 6.17188 40.6152C5.99609 41.4551 5.9082 42.4414 5.9082 43.5742V45.083C5.9082 46.1865 5.99121 47.1582 6.15723 47.998C6.32324 48.8281 6.57715 49.5312 6.91895 50.1074C7.27051 50.6738 7.71973 51.1035 8.2666 51.3965C8.82324 51.6797 9.49219 51.8213 10.2734 51.8213C11.1914 51.8213 11.9482 51.6748 12.5439 51.3818C13.1396 51.0889 13.5938 50.6543 13.9062 50.0781C14.2285 49.502 14.4189 48.7842 14.4775 47.9248ZM30.415 37.3193L24.6143 55H19.9414L27.8662 33.6719H30.8398L30.415 37.3193ZM35.2344 55L29.4189 37.3193L28.9502 33.6719H31.9531L39.9219 55H35.2344ZM34.9707 47.0605V50.5029H23.7061V47.0605H34.9707ZM55.6104 51.5723V55H44.873V51.5723H55.6104ZM46.2939 33.6719V55H41.8994V33.6719H46.2939ZM72.4414 51.5723V55H61.0889V51.5723H72.4414ZM62.5244 33.6719V55H58.1299V33.6719H62.5244ZM70.9619 42.3584V45.6982H61.0889V42.3584H70.9619ZM72.4268 33.6719V37.1143H61.0889V33.6719H72.4268ZM92.3633 33.6719V55H87.9688L79.3994 40.7031V55H75.0049V33.6719H79.3994L87.9834 47.9834V33.6719H92.3633ZM102.734 55H98.0908L98.1201 51.5723H102.734C103.887 51.5723 104.858 51.3135 105.649 50.7959C106.44 50.2686 107.036 49.502 107.437 48.4961C107.847 47.4902 108.052 46.2744 108.052 44.8486V43.8086C108.052 42.7148 107.935 41.7529 107.7 40.9229C107.476 40.0928 107.139 39.3945 106.689 38.8281C106.24 38.2617 105.688 37.8369 105.034 37.5537C104.38 37.2607 103.628 37.1143 102.778 37.1143H98.0029V33.6719H102.778C104.204 33.6719 105.508 33.916 106.689 34.4043C107.881 34.8828 108.911 35.5713 109.78 36.4697C110.649 37.3682 111.318 38.4424 111.787 39.6924C112.266 40.9326 112.505 42.3145 112.505 43.8379V44.8486C112.505 46.3623 112.266 47.7441 111.787 48.9941C111.318 50.2441 110.649 51.3184 109.78 52.2168C108.921 53.1055 107.891 53.7939 106.689 54.2822C105.498 54.7607 104.18 55 102.734 55ZM100.581 33.6719V55H96.1865V33.6719H100.581ZM124.048 37.3193L118.247 55H113.574L121.499 33.6719H124.473L124.048 37.3193ZM128.867 55L123.052 37.3193L122.583 33.6719H125.586L133.555 55H128.867ZM128.604 47.0605V50.5029H117.339V47.0605H128.604ZM121.572 32.4707L124.443 27.959H129.028L125 32.4707H121.572ZM135.532 33.6719H143.486C145.117 33.6719 146.519 33.916 147.69 34.4043C148.872 34.8926 149.78 35.6152 150.415 36.5723C151.05 37.5293 151.367 38.7061 151.367 40.1025C151.367 41.2451 151.172 42.2266 150.781 43.0469C150.4 43.8574 149.858 44.5361 149.155 45.083C148.462 45.6201 147.646 46.0498 146.709 46.3721L145.317 47.1045H138.403L138.374 43.6768H143.516C144.287 43.6768 144.927 43.54 145.435 43.2666C145.942 42.9932 146.323 42.6123 146.577 42.124C146.841 41.6357 146.973 41.0693 146.973 40.4248C146.973 39.7412 146.846 39.1504 146.592 38.6523C146.338 38.1543 145.952 37.7734 145.435 37.5098C144.917 37.2461 144.268 37.1143 143.486 37.1143H139.927V55H135.532V33.6719ZM147.456 55L142.593 45.4932L147.236 45.4639L152.158 54.7949V55H147.456ZM159.424 33.6719V55H155.044V33.6719H159.424ZM181.06 43.8379V44.8486C181.06 46.4697 180.84 47.9248 180.4 49.2139C179.961 50.5029 179.341 51.6016 178.54 52.5098C177.739 53.4082 176.782 54.0967 175.669 54.5752C174.565 55.0537 173.34 55.293 171.992 55.293C170.654 55.293 169.429 55.0537 168.315 54.5752C167.212 54.0967 166.255 53.4082 165.444 52.5098C164.634 51.6016 164.004 50.5029 163.555 49.2139C163.115 47.9248 162.896 46.4697 162.896 44.8486V43.8379C162.896 42.207 163.115 40.752 163.555 39.4727C163.994 38.1836 164.614 37.085 165.415 36.1768C166.226 35.2686 167.183 34.5752 168.286 34.0967C169.399 33.6182 170.625 33.3789 171.963 33.3789C173.311 33.3789 174.536 33.6182 175.64 34.0967C176.753 34.5752 177.71 35.2686 178.511 36.1768C179.321 37.085 179.946 38.1836 180.386 39.4727C180.835 40.752 181.06 42.207 181.06 43.8379ZM176.621 44.8486V43.8086C176.621 42.6758 176.519 41.6797 176.313 40.8203C176.108 39.9609 175.806 39.2383 175.405 38.6523C175.005 38.0664 174.517 37.627 173.94 37.334C173.364 37.0312 172.705 36.8799 171.963 36.8799C171.221 36.8799 170.562 37.0312 169.985 37.334C169.419 37.627 168.936 38.0664 168.535 38.6523C168.145 39.2383 167.847 39.9609 167.642 40.8203C167.437 41.6797 167.334 42.6758 167.334 43.8086V44.8486C167.334 45.9717 167.437 46.9678 167.642 47.8369C167.847 48.6963 168.149 49.4238 168.55 50.0195C168.95 50.6055 169.438 51.0498 170.015 51.3525C170.591 51.6553 171.25 51.8066 171.992 51.8066C172.734 51.8066 173.394 51.6553 173.97 51.3525C174.546 51.0498 175.029 50.6055 175.42 50.0195C175.811 49.4238 176.108 48.6963 176.313 47.8369C176.519 46.9678 176.621 45.9717 176.621 44.8486Z" fill="url(#paint0_linear_122_251)"/>
<path d="M76.6016 89.7041V93H62.0117V90.1875L68.9111 82.79C69.6045 82.0186 70.1514 81.3398 70.5518 80.7539C70.9521 80.1582 71.2402 79.626 71.416 79.1572C71.6016 78.6787 71.6943 78.2246 71.6943 77.7949C71.6943 77.1504 71.5869 76.5986 71.3721 76.1396C71.1572 75.6709 70.8398 75.3096 70.4199 75.0557C70.0098 74.8018 69.502 74.6748 68.8965 74.6748C68.252 74.6748 67.6953 74.8311 67.2266 75.1436C66.7676 75.4561 66.416 75.8906 66.1719 76.4473C65.9375 77.0039 65.8203 77.6338 65.8203 78.3369H61.5869C61.5869 77.0674 61.8896 75.9053 62.4951 74.8506C63.1006 73.7861 63.9551 72.9414 65.0586 72.3164C66.1621 71.6816 67.4707 71.3643 68.9844 71.3643C70.4785 71.3643 71.7383 71.6084 72.7637 72.0967C73.7988 72.5752 74.5801 73.2686 75.1074 74.1768C75.6445 75.0752 75.9131 76.1494 75.9131 77.3994C75.9131 78.1025 75.8008 78.791 75.5762 79.4648C75.3516 80.1289 75.0293 80.793 74.6094 81.457C74.1992 82.1113 73.7012 82.7754 73.1152 83.4492C72.5293 84.123 71.8799 84.8213 71.167 85.5439L67.4609 89.7041H76.6016ZM93.5938 80.4609V84.1523C93.5938 85.7539 93.4229 87.1357 93.0811 88.2979C92.7393 89.4502 92.2461 90.3975 91.6016 91.1396C90.9668 91.8721 90.21 92.4141 89.3311 92.7656C88.4521 93.1172 87.4756 93.293 86.4014 93.293C85.542 93.293 84.7412 93.1855 83.999 92.9707C83.2568 92.7461 82.5879 92.3994 81.9922 91.9307C81.4062 91.4619 80.8984 90.8711 80.4688 90.1582C80.0488 89.4355 79.7266 88.5762 79.502 87.5801C79.2773 86.584 79.165 85.4414 79.165 84.1523V80.4609C79.165 78.8594 79.3359 77.4873 79.6777 76.3447C80.0293 75.1924 80.5225 74.25 81.1572 73.5176C81.8018 72.7852 82.5635 72.248 83.4424 71.9062C84.3213 71.5547 85.2979 71.3789 86.3721 71.3789C87.2314 71.3789 88.0273 71.4912 88.7598 71.7158C89.502 71.9307 90.1709 72.2676 90.7666 72.7266C91.3623 73.1855 91.8701 73.7764 92.29 74.499C92.71 75.2119 93.0322 76.0664 93.2568 77.0625C93.4814 78.0488 93.5938 79.1816 93.5938 80.4609ZM89.3604 84.709V79.8896C89.3604 79.1182 89.3164 78.4443 89.2285 77.8682C89.1504 77.292 89.0283 76.8037 88.8623 76.4033C88.6963 75.9932 88.4912 75.6611 88.2471 75.4072C88.0029 75.1533 87.7246 74.9678 87.4121 74.8506C87.0996 74.7334 86.7529 74.6748 86.3721 74.6748C85.8936 74.6748 85.4688 74.7676 85.0977 74.9531C84.7363 75.1387 84.4287 75.4365 84.1748 75.8467C83.9209 76.2471 83.7256 76.7842 83.5889 77.458C83.4619 78.1221 83.3984 78.9326 83.3984 79.8896V84.709C83.3984 85.4805 83.4375 86.1592 83.5156 86.7451C83.6035 87.3311 83.7305 87.834 83.8965 88.2539C84.0723 88.6641 84.2773 89.001 84.5117 89.2646C84.7559 89.5186 85.0342 89.7041 85.3467 89.8213C85.6689 89.9385 86.0205 89.9971 86.4014 89.9971C86.8701 89.9971 87.2852 89.9043 87.6465 89.7188C88.0176 89.5234 88.3301 89.2207 88.584 88.8105C88.8477 88.3906 89.043 87.8438 89.1699 87.1699C89.2969 86.4961 89.3604 85.6758 89.3604 84.709ZM111.055 89.7041V93H96.4648V90.1875L103.364 82.79C104.058 82.0186 104.604 81.3398 105.005 80.7539C105.405 80.1582 105.693 79.626 105.869 79.1572C106.055 78.6787 106.147 78.2246 106.147 77.7949C106.147 77.1504 106.04 76.5986 105.825 76.1396C105.61 75.6709 105.293 75.3096 104.873 75.0557C104.463 74.8018 103.955 74.6748 103.35 74.6748C102.705 74.6748 102.148 74.8311 101.68 75.1436C101.221 75.4561 100.869 75.8906 100.625 76.4473C100.391 77.0039 100.273 77.6338 100.273 78.3369H96.04C96.04 77.0674 96.3428 75.9053 96.9482 74.8506C97.5537 73.7861 98.4082 72.9414 99.5117 72.3164C100.615 71.6816 101.924 71.3643 103.438 71.3643C104.932 71.3643 106.191 71.6084 107.217 72.0967C108.252 72.5752 109.033 73.2686 109.561 74.1768C110.098 75.0752 110.366 76.1494 110.366 77.3994C110.366 78.1025 110.254 78.791 110.029 79.4648C109.805 80.1289 109.482 80.793 109.062 81.457C108.652 82.1113 108.154 82.7754 107.568 83.4492C106.982 84.123 106.333 84.8213 105.62 85.5439L101.914 89.7041H111.055ZM128.281 89.7041V93H113.691V90.1875L120.591 82.79C121.284 82.0186 121.831 81.3398 122.231 80.7539C122.632 80.1582 122.92 79.626 123.096 79.1572C123.281 78.6787 123.374 78.2246 123.374 77.7949C123.374 77.1504 123.267 76.5986 123.052 76.1396C122.837 75.6709 122.52 75.3096 122.1 75.0557C121.689 74.8018 121.182 74.6748 120.576 74.6748C119.932 74.6748 119.375 74.8311 118.906 75.1436C118.447 75.4561 118.096 75.8906 117.852 76.4473C117.617 77.0039 117.5 77.6338 117.5 78.3369H113.267C113.267 77.0674 113.569 75.9053 114.175 74.8506C114.78 73.7861 115.635 72.9414 116.738 72.3164C117.842 71.6816 119.15 71.3643 120.664 71.3643C122.158 71.3643 123.418 71.6084 124.443 72.0967C125.479 72.5752 126.26 73.2686 126.787 74.1768C127.324 75.0752 127.593 76.1494 127.593 77.3994C127.593 78.1025 127.48 78.791 127.256 79.4648C127.031 80.1289 126.709 80.793 126.289 81.457C125.879 82.1113 125.381 82.7754 124.795 83.4492C124.209 84.123 123.56 84.8213 122.847 85.5439L119.141 89.7041H128.281Z" fill="url(#paint1_linear_122_251)"/>
<defs>
<linearGradient id="paint0_linear_122_251" x1="95" y1="26" x2="95" y2="102" gradientUnits="userSpaceOnUse">
<stop stop-color="white"/>
<stop offset="1" stop-color="#D9D9D9" stop-opacity="0.8"/>
</linearGradient>
<linearGradient id="paint1_linear_122_251" x1="95" y1="26" x2="95" y2="102" gradientUnits="userSpaceOnUse">
<stop stop-color="white"/>
<stop offset="0.682915" stop-color="white" stop-opacity="0.863417"/>
<stop offset="1" stop-color="#D9D9D9" stop-opacity="0.8"/>
</linearGradient>
</defs>
</svg>