<svg width="50" height="51" viewBox="0 0 50 51" fill="none" xmlns="http://www.w3.org/2000/svg">
<g clip-path="url(#clip0_406_333)">
<path d="M25 50.7272C38.8071 50.7272 50 39.5343 50 25.7272C50 11.9201 38.8071 0.727173 25 0.727173C11.1929 0.727173 0 11.9201 0 25.7272C0 39.5343 11.1929 50.7272 25 50.7272Z" fill="#F0F0F0"/>
<path d="M48.445 17.0316H1.55498C0.550098 19.7399 0 22.6692 0 25.7272C0 28.7852 0.550098 31.7145 1.55498 34.4228H48.4451C49.45 31.7145 50 28.7852 50 25.7272C50 22.6692 49.45 19.7399 48.445 17.0316Z" fill="#D80027"/>
<path d="M25 0.727173C17.4228 0.727173 10.6334 4.09866 6.04874 9.42278H43.9512C39.3666 4.09866 32.5773 0.727173 25 0.727173V0.727173Z" fill="#0052B4"/>
<path d="M43.9513 42.0316H6.04874C10.6334 47.3557 17.4228 50.7272 25 50.7272C32.5773 50.7272 39.3666 47.3557 43.9513 42.0316Z" fill="#0052B4"/>
</g>
<defs>
<clipPath id="clip0_406_333">
<rect width="50" height="50" fill="white" transform="translate(0 0.727173)"/>
</clipPath>
</defs>
</svg>